<svg xmlns="http://www.w3.org/2000/svg" width="500" height="500"><path fill="#0497F5" d="M290.61 15.556c2.384.443 4.773.833 7.167 1.217C328.73 22.037 358.111 35.148 385 51l2.895 1.605L390 54v2l2 .688c3.887 1.7 7.637 3.708 11 6.312v2l1.703.781c2.564 1.36 4.75 2.947 7.047 4.719l2.422 1.844L416 74v2h2v2h2v2h2v2h2v2h2c1.777 1.914 1.777 1.914 3.938 4.625l2.437 3.055 1.297 1.643a563 563 0 0 0 4.016 4.997c6.202 7.704 11.847 15.664 17.207 23.974 1 1.543 2.018 3.075 3.039 4.604 3.901 5.927 7.133 12.037 10.238 18.415 1.573 3.215 3.254 6.363 4.965 9.507 7.484 13.75 7.484 13.75 8.863 19.18l-1 3c-2.157-2.014-3.658-3.902-5.043-6.504l-1.064-1.994-1.08-2.064-1.116-2.077C470 159.262 470 159.262 470 157h-2l-.777-1.512c-4.275-8.017-9.39-15.6-14.996-22.75C451 131 451 131 451 129h-2c-3-3.462-3-3.462-3-6h-2l-2-5h-2v-2h-2c-1.516-1.574-1.516-1.574-3.25-3.687-2.25-2.666-4.45-5.023-7.187-7.188L425 103v-2h-2v-2h-2v-2l-1.621-.707c-3.076-1.672-5.712-3.808-8.441-5.98C405.177 85.809 399.236 81.823 393 78l-2.871-1.89C366.343 60.716 337.137 50.907 309 48l-3.125-.336C251.847 42.86 192.34 54.29 148.031 86.68 146 88 146 88 144 88v2c-1.46 1.29-1.46 1.29-3.375 2.625l-1.898 1.352C137 95 137 95 135 95v2c-1.398 1.41-1.398 1.41-3.375 3.063l-2.207 1.882L127 104c-6.144 5.332-11.849 10.702-17 17l-1.304 1.57C84.436 151.824 70.129 183.679 63 221c-.182.882-.364 1.763-.55 2.672-10.334 54.585-1.28 117.52 30.01 164.16a715 715 0 0 0 4.478 6.23C99 397 99 397 99 399h2a81 81 0 0 1 3.563 4.438c6.694 8.925 6.694 8.925 15.437 15.562v2l1.813.875C124 423 124 423 127 425v2l2.234.785c2.851 1.252 4.67 2.623 7.016 4.653 6.523 5.356 13.587 9.79 20.72 14.28a626 626 0 0 1 5.276 3.376C176.637 459.226 191.91 467.327 208 473l2.421.858c13.582 4.77 27.257 9.274 41.579 11.142v2c-22.727.777-47.366-3.407-68.348-12.441-3.936-1.68-7.914-3.062-11.964-4.434-5.716-1.973-11.105-4.144-16.454-6.988-2.268-1.154-4.54-2.058-6.921-2.95C137.213 455.86 126.899 449.56 117 443l-4.012-2.59-4.175-2.722-2.04-1.313c-1.627-1.072-3.205-2.218-4.773-3.375v-2l-2.25-.812c-2.64-1.14-4.606-2.282-6.75-4.188v-2l-1.687-.75c-2.737-1.48-4.99-3.185-7.313-5.25v-2h-2c-4-4.47-4-4.47-4-7h-2v-2h-2c-1.727-1.898-1.727-1.898-3.625-4.375l-1.914-2.46C67 398 67 398 67 396h-2c-1.389-1.573-1.389-1.573-2.969-3.762-.57-.79-1.142-1.579-1.73-2.392l-1.801-2.533-1.8-2.475c-2.776-3.869-5.053-7.342-6.7-11.838h-2l-1.066-1.984c-2.639-4.877-5.336-9.672-8.246-14.391-10.404-17.792-17.471-38.062-21.047-58.328C16.959 294.79 15.99 291.43 15 288c-2.831-13.342-3.169-26.909-3.125-40.5l-.012-3.645c.015-13.95 1.218-27.24 4.137-40.855l.565-2.747C21.048 178.739 28.393 158.283 39 139l1.158-2.128c5.136-9.38 10.671-18.365 16.905-27.06l1.697-2.377 1.588-2.165 1.406-1.92L63 102h2l.875-1.812C67 98 67 98 69 95h2l.746-1.73c1.463-2.648 3.18-4.455 5.317-6.598l2.414-2.422L82 81.75c1.25-1.26 1.25-1.26 2.523-2.547l2.415-2.406 2.214-2.208C91 73 91 73 93 73v-2a100 100 0 0 1 5.688-4.562l1.753-1.326C117.91 52 117.91 52 121 52v-2c31.492-18.44 63.7-30.329 100-35l2.253-.312c22.143-3.01 45.364-3.262 67.357.868"/><path fill="#06A9E5" d="M255 72v3l-2.781.953c-7.404 2.582-14.359 5.373-21.242 9.16C229 86 229 86 226 86v2l-1.871.883c-5.286 2.558-10.199 5.338-15.024 8.687a83 83 0 0 1-4.511 2.848c-3.914 2.387-7.505 5.187-11.168 7.937C191 110 191 110 189 110v2c-1.828 1.586-1.828 1.586-4.25 3.375-2.496 1.851-4.75 3.624-6.922 5.852C176 123 176 123 174 123v2h-2v2c-1.875 2.125-1.875 2.125-4 4h-2v2h-2l-.781 1.703c-1.36 2.564-2.947 4.75-4.719 7.047l-1.844 2.422L155 146h-2l-.785 2.219c-1.254 2.871-2.698 4.842-4.653 7.281-16.382 22.082-25.577 49.225-29.252 76.231-.25 1.826-.535 3.647-.831 5.466-.545 4.324-.677 8.548-.717 12.9l-.03 2.616c-.312 34.498 4.72 63.65 21.59 94.163 1.638 2.993 3.1 5.738 3.678 9.124h2c1.402 1.828 1.402 1.828 2.938 4.25 1.52 2.381 3.017 4.692 4.753 6.922C153 369 153 369 153 371h2v2h2c4 4.47 4 4.47 4 7h2v2l1.766.813c2.262 1.202 4.04 2.525 5.984 4.187l1.86 1.563C174 390 174 390 174 392l1.594.707c3.18 1.709 6.006 3.845 8.906 5.98 6.287 4.538 12.645 8.668 19.5 12.313l1.872 1.01c10.517 5.588 21.456 9.676 32.753 13.365l1.928.64c16.863 5.552 32.802 7.488 50.547 7.376 3-.016 6 0 9.002.02 32.892.034 66.91-6.41 97.898-17.411 5.656-1.844 11.078-3.356 17-4-1.503 4.208-4.233 5.803-8 8h-2v2c-1.66 1.191-1.66 1.191-4.062 2.563-3.14 1.812-6.27 3.63-9.344 5.55-8.55 5.31-17.3 9.747-26.468 13.887-2.31 1.087-4.562 2.267-6.825 3.45-5.905 2.968-12.032 5.05-18.301 7.113l-3.309 1.13c-17.92 5.956-34.258 8.025-53.128 7.87l-3.344-.013c-16.912-.091-32.828-1.086-49.219-5.55l-3.14-.811c-19.59-5.097-37.178-12.43-54.86-22.189v-2l-1.562-.25c-3.483-1.071-6.31-2.885-9.438-4.75v-2l-2.125-.75c-3.27-1.422-6.016-3.122-8.875-5.25v-2l-1.875-.937L145 415v-2l-1.812-.875C141 411 141 411 138 409v-2h-2v-2h-2v-2h-2a107 107 0 0 1-4.625-5.375l-2.477-3.023C123 392 123 392 123 390h-2l-2-5h-2c-1.417-1.769-1.417-1.769-3.047-4.242l-1.812-2.735-1.891-2.898-1.844-2.781C95.055 352.089 85.014 331.838 80 308l-.621-2.824C70.445 261.06 77.205 211.43 99 172l1.003-1.843c3.98-7.279 3.98-7.279 5.997-10.157h2l.719-2.105c1.512-3.417 3.533-6.253 5.781-9.208l1.223-1.666c1.04-1.381 2.153-2.707 3.277-4.021h2l.875-1.812C123 139 123 139 125 136h2l.781-1.766c1.317-2.414 2.77-4.051 4.719-5.984l1.844-1.86C136 125 136 125 138 125v-2h2v-2c4.47-4 4.47-4 7-4v-2c1.898-1.727 1.898-1.727 4.375-3.625l2.46-1.914C156 108 156 108 158 108v-2l2.64-1.504 1.726-.984q1.912-1.09 3.825-2.176c2.942-1.675 5.86-3.367 8.743-5.145C197.354 82.421 228.398 71.42 255 72"/><path fill="#304DEC" d="m378 111 2.863 1.3c7.8 3.668 14.571 8.308 21.44 13.454a136 136 0 0 0 3.671 2.597c1.708 1.17 3.371 2.405 5.026 3.649v2h2v2l1.813.813c2.185 1.186 3.6 2.283 5.187 4.187v2h2v2h2a97 97 0 0 1 4.5 5.688l1.223 1.607c2.309 3.105 4.026 6.042 5.277 9.705h2c2.627 3.819 4.775 7.937 7 12l1.617 2.941c10.114 19.258 10.114 19.258 9.012 26.496L454 205c-3.23-2.762-5.08-6.345-7.125-10l-1.09-1.906c-1.512-2.673-2.811-5.173-3.785-8.094h-2c-1.516-1.941-1.516-1.941-3.25-4.562-4.887-7.75-4.887-7.75-11.75-13.438v-2h-2v-2h-2v-2l-5-2v-2l-1.765-.848c-2.103-1.084-4.026-2.266-5.993-3.578-11.221-7.498-11.221-7.498-23.242-13.574l-1.875-.811C371.98 133.428 360.929 130.107 349 128l-3.773-.684C318.657 123.278 290.21 125.57 265 135l-1.987.728c-7.503 2.764-14.312 5.89-21.013 10.272h-3v2a88 88 0 0 1-5.25 3.375c-3.757 2.256-6.669 4.53-9.75 7.625h-2v2h-2v2c-1.375 1.625-1.375 1.625-3 3h-2v2h-2v2h-2l-.715 1.613c-1.323 2.457-2.885 4.622-4.559 6.85C188.8 201.112 176.47 230.486 176 259l-.082 3.559c-.044 3.818 0 7.624.082 11.441.017 1.22.034 2.441.05 3.7.697 19.362 4.91 43.532 16.196 59.702C194 340 194 340 194 343h2c4 6.75 4 6.75 4 9h2c1.191 1.398 1.191 1.398 2.563 3.375 6.88 9.451 15.078 18.665 25 25L232 382v2h3v2l6 2v2l1.78.386c3.575.989 6.679 2.954 9.907 4.739 18.1 9.739 37.106 16.095 57.313 19.875v2c-21.56.522-42.733-2.357-63-10l-2.766-1.012c-17.733-6.904-33.29-17.213-47.175-30.14-2.123-1.994-2.123-1.994-5.059-3.848v-2h-2v-2h-2a140 140 0 0 1-5.5-6.687l-1.512-1.897c-2.608-3.339-4.675-6.329-5.988-10.416h-2c-10.245-12.427-16.738-29.939-22-45l-1.113-3.137c-4.833-14.007-6.06-27.197-6.017-41.947.005-2.148 0-4.296-.007-6.443-.016-32.216 6.44-63.636 25.137-90.473l1.695-2.656c3.04-4.757 3.04-4.757 4.305-6.344h2v-2h2l.688-1.625c3.056-5.53 7.324-9.606 12.312-13.375h2v-2h2v-2c1.414-1.202 1.414-1.202 3.41-2.54l2.227-1.497 2.425-1.588 2.478-1.631C256.967 91.968 323.153 84.62 378 111"/><path fill="#18659B" d="m369 167 2.723 1.336c6.308 3.212 11.588 7.116 16.964 11.71 2.352 2.062 2.352 2.062 5.313 3.954v2h2v2h2v2h2c1.727 1.898 1.727 1.898 3.625 4.375l1.914 2.46C407 199 407 199 407 201h2c2.287 3.152 4.098 6.606 6 10l1.328 2.223C428.432 234.94 430.461 265.292 424 289c-4.219 13.41-11.323 25.744-21 36h-2v2a113 113 0 0 1-6.187 5.125l-1.925 1.491c-25.182 19.22-53.604 27.807-85.283 23.923C294.894 355.6 282.936 350.698 272 344v-2l-2.176-.727c-3.242-1.462-5.386-3.256-8.012-5.648l-2.605-2.336c-2.02-2.096-2.933-3.74-4.207-6.289l-3-1c-1.187-2.562-1.187-2.562-2-5h-2c-2.042-2.905-3-4.401-3-8 2.939 1.352 5.292 2.9 7.75 5l1.86 1.563C256 321 256 321 256 323l1.703.836c2.383 1.208 4.715 2.486 7.047 3.789l2.422 1.352L269 330v2l1.61.348c4.093 1.117 7.971 2.822 11.906 4.398 7.306 2.63 13.958 3.641 21.671 3.942l2.812.114c26.806.927 52.07-7.593 72.001-25.802 17.16-16.918 23.8-38.808 24.188-62.375-.178-17.53-5.066-32.57-13.614-47.676C388 202 388 202 388 200h-2c-1.375-1.652-1.375-1.652-3-3.937-15.08-19.706-37.52-27.621-61.25-31.25-8.579-1.094-17.117-.991-25.75-.813v-2c21.606-9.328 52.57-5.9 73 5"/><path fill="#136CEB" d="M99 402c3.537 1.529 5.996 3.642 8.813 6.25 3.05 2.806 6.115 5.55 9.312 8.188.949.845 1.898 1.69 2.875 2.562v2l1.813.875C124 423 124 423 127 425v2l2.234.785c2.851 1.252 4.67 2.623 7.016 4.652 6.523 5.357 13.587 9.792 20.72 14.282a626 626 0 0 1 5.276 3.375C176.637 459.226 191.91 467.327 208 473l2.421.858c13.582 4.77 27.257 9.274 41.579 11.142v2c-22.727.777-47.366-3.407-68.348-12.441-3.936-1.68-7.914-3.062-11.964-4.434-5.716-1.973-11.105-4.144-16.454-6.988-2.268-1.154-4.54-2.058-6.922-2.95C137.229 455.866 126.868 449.585 117 443l-2.195-1.371c-2.956-1.92-4.606-3.033-5.743-6.442L109 433c3.594 0 4.993 1.15 8 3h2l1 5 4 1v3c1.975-.348 1.975-.348 4-1l1-2-3-1 1-3 3 1 3-3-3-1v-4l-2.375-.187L125 430a156 156 0 0 1-2-5c-2.93-2.178-4.323-3-8-3v-3l-4-2v-2l-1.812.688c-2.188.312-2.188.312-3.938-.75-1.735-2.69-1.459-4.807-1.25-7.938l-3-1v-2h-2v4h-5z"/><path fill="#23C6CE" d="m369 167 2.723 1.336c6.308 3.212 11.588 7.116 16.964 11.71 2.352 2.062 2.352 2.062 5.313 3.954v2h2v2h2v2h2c1.727 1.898 1.727 1.898 3.625 4.375l1.914 2.46C407 199 407 199 407 201h2c2.286 3.151 4.105 6.603 6 10l1.363 2.398c4.275 7.968 8.101 17.437 7.637 26.602-2.351-2.878-3.722-5.495-4.937-9l-1.024-2.902q-1.071-3.197-2.078-6.414l-1.024-3.246-.91-3.004c-.894-2.743-.894-2.743-4.027-4.434v-2l-2-1a80 80 0 0 1-2.812-3.687c-1.938-2.652-3.913-5.207-6.063-7.688C397 194 397 194 397 192c-2.622 1.049-3.794 1.65-5.25 4.125L391 198l2 1-2 1 2 1v3l6 1-.187 3.938c.007 4.88.643 9.81 3.187 14.062 2.039.808 2.039.808 4 1l-1.062 1.938c-1.046 3.416-.64 5.86-.202 9.353.51 5.224.407 10.465.389 15.709l.012 3.406c-.01 8.96-.404 17.09-3.2 25.656l-1.097 3.41L400 286c-1.218-3.5-.744-5.576.375-9.062 6.574-22.724 2.522-47.75-8.687-68.25l-2.114-3.739C388 202 388 202 388 200h-2c-1.375-1.652-1.375-1.652-3-3.937-15.08-19.706-37.52-27.621-61.25-31.25-8.579-1.094-17.117-.991-25.75-.813v-2c21.606-9.328 52.57-5.9 73 5"/><path fill="#7418CE" d="M202 358c3.835 1.592 6.538 4.178 9.5 7 9.55 9.493 9.55 9.493 20.5 17v2h3v2l6 2v2l1.78.386c3.575.989 6.679 2.954 9.907 4.739 18.1 9.739 37.106 16.095 57.313 19.875v2c-21.56.522-42.733-2.357-63-10l-2.766-1.012C228.643 399.918 201.798 387.595 194 372c2.468 1.152 4.048 2.048 6 4 2.57.648 2.57.648 5 1l.25-1.75c.955-2.866 2.535-4.25 4.75-6.25h-2v-4l-6 3c-2-3-2-3-1.687-5.125C201 361 201 361 202 360z"/><path fill="#0964E9" d="M158 453c9.45.844 16.838 4.303 25.063 8.813 8.13 4.351 16.233 8.099 24.937 11.187l2.43.863c13.578 4.767 27.252 9.27 41.57 11.137v2c-23.452.802-48.533-3.766-70.09-13.213-2.069-.852-4.155-1.579-6.277-2.287l-2.242-.75a537 537 0 0 0-4.602-1.5c-1.961-.663-3.88-1.448-5.789-2.25l-1-3-3-1c-1.062-1.937-1.062-1.937-2-4l-2-2z"/><path fill="#3084F3" d="m405 129 6 3v2h2v2l1.813.813c2.185 1.186 3.6 2.283 5.187 4.187v2h2v2h2a97 97 0 0 1 4.5 5.688l1.223 1.607c2.309 3.105 4.026 6.042 5.277 9.705h2c2.627 3.819 4.775 7.937 7 12l1.617 2.941c10.114 19.258 10.114 19.258 9.012 26.496L454 205c-3.23-2.762-5.08-6.345-7.125-10l-1.09-1.906c-1.512-2.673-2.811-5.173-3.785-8.094h-2c-1.516-1.941-1.516-1.941-3.25-4.562-4.887-7.75-4.887-7.75-11.75-13.438v-2h-2v-2h-2v-2l-5-2v-2l-1.754-.844c-2.157-1.11-4.15-2.325-6.18-3.652l-2.216-1.443-2.288-1.499-4.496-2.933c-.7-.458-1.402-.915-2.124-1.386a155 155 0 0 0-4.977-3.028L390 141v-1c6.492-1.025 10.865 2.511 16 6q1.912 1.46 3.813 2.938c2.967 2.369 2.967 2.369 6.125 1.875L418 150l1 3c2.015.733 2.015.733 4 1-.97-2.686-1.882-4.846-3.625-7.125C418 145 418 145 418 142l-5-1-1-5h-2c-1.29-1.531-1.29-1.531-2.625-3.5l-1.352-1.969z"/><path fill="#44CDD5" d="M385 178c3.141 1.833 6.226 3.637 9 6v2h2v2h2v2h2c1.727 1.898 1.727 1.898 3.625 4.375l1.914 2.46C407 199 407 199 407 201h2c2.286 3.151 4.105 6.603 6 10l1.363 2.398c4.275 7.968 8.101 17.437 7.637 26.602-2.351-2.878-3.722-5.495-4.937-9l-1.024-2.902q-1.071-3.197-2.078-6.414l-1.024-3.246-.91-3.004c-.894-2.743-.894-2.743-4.027-4.434v-2l-2-1a80 80 0 0 1-2.812-3.687c-1.938-2.652-3.913-5.207-6.063-7.688C397 194 397 194 397 192c-2.622 1.049-3.794 1.65-5.25 4.125L391 198l2 1-2 1 2 1v3l6 1-.187 3.938c.007 4.88.643 9.81 3.187 14.062 2.039.808 2.039.808 4 1l-1.062 1.938c-1.046 3.416-.64 5.86-.202 9.353.51 5.224.407 10.465.389 15.709l.012 3.406c-.01 8.96-.404 17.09-3.2 25.656l-1.097 3.41L400 286c-1.218-3.5-.744-5.576.375-9.062 6.574-22.724 2.522-47.75-8.687-68.25l-2.114-3.739C388 202 388 202 388 200h-2c-1.375-1.652-1.375-1.652-3-3.937-4.059-5.406-8.868-9.696-14-14.063 4.138 0 5.21 1.715 8.188 4.5l2.73 2.531L382 191v-2c.25-2 .25-2 1-4 2.063-1.25 2.063-1.25 4-2v-3h-2z"/><path fill="#4DCDF5" d="M407 86c4.942 1.14 7.61 2.246 11 6l3 1v2h2a82 82 0 0 1 3.625 4.5c6.458 8.819 6.458 8.819 15.375 14.5v3h2c.347-4.162-.368-5.82-3-9v-2h-2c-2-3-2-3-1.625-5.187L438 99c6.214 7.377 11.603 15.154 16.847 23.23a499 499 0 0 0 3.098 4.684c3.896 5.922 7.125 12.027 10.227 18.399 1.573 3.215 3.254 6.363 4.965 9.507 7.484 13.75 7.484 13.75 8.863 19.18l-1 3c-2.157-2.014-3.658-3.902-5.043-6.504l-1.064-1.994-1.08-2.065-1.116-2.076C470 159.262 470 159.262 470 157h-2l-.777-1.512c-4.275-8.017-9.39-15.6-14.996-22.75C451 131 451 131 451 129h-2c-3-3.462-3-3.462-3-6h-2l-2-5h-2v-2h-2c-1.516-1.574-1.516-1.574-3.25-3.687-2.25-2.666-4.45-5.023-7.187-7.188L425 103v-2h-2v-2h-2v-2l-1.672-.746c-2.792-1.504-5.11-3.328-7.578-5.317l-2.703-2.16L407 87z"/><path fill="#6ED9DE" d="m326.125 157.625 3.552.003c12.006.162 23.629 1.586 34.323 7.372-3.25 1.084-4.07.913-7.25.063-4.061-.99-7.583-1.24-11.75-1.063v2l5 2v2h5v2l2.2.805c2.802 1.196 5.105 2.598 7.613 4.32l2.394 1.633L369 180c-4.263 0-7.195-2.207-10.812-4.25C339.032 165.357 317.5 163.291 296 164v-2c9.524-4.112 19.884-4.389 30.125-4.375"/><path fill="#85DFF8" d="m293 16 5.2.914c10.273 1.871 20 4.463 29.8 8.086v1c-7.819-.466-15.364-1.225-23-3v-2l-3.062.063C298 21 298 21 294.375 20.438c-3.279-.626-3.279-.626-6.062.187L286 21l-1.821-1.43c-2.599-1.872-4.185-2.06-7.355-2.3l-3.01-.245-3.127-.212-3.091-.249c-9.019-.87-9.019-.87-17.973-.074-2.597.505-5.028.697-7.67.791l-2.808.114-5.836.21-2.793.114-2.554.092c-1.964-.02-1.964-.02-2.962 1.189a70 70 0 0 1-4.34.246l-2.724.1q-2.82.09-5.641.172c-5.501.206-10.644.807-16.008 2.064-2.473.452-4.779.486-7.287.418 3.22-2.146 5.161-2.563 8.934-3.219l3.622-.634 3.881-.647 1.992-.334C235.876 12.42 264.496 10.61 293 16"/><path fill="#6ECEEF" d="M256 47v1l-1.866.256C216.25 53.58 179.25 63.858 148.03 86.68 146 88 146 88 144 88v2c-1.531 1.29-1.531 1.29-3.5 2.625l-1.969 1.352L137 95l-2-1 3-6 1.063-2.312C140 84 140 84 142 83v2h2l2-4h4l1-2h3v-3h6l1-3h3v-2h4v-2c6.31-2.724 12.648-5.378 19-8l2.625-1.133C192 59 192 59 195.875 58.687c8.055-.73 15.783-4.116 23.332-6.847C222 51 222 51 226 51v-2c3.5-.34 7-.67 10.5-1 .982-.095 1.965-.19 2.977-.29 5.537-.516 10.962-.816 16.523-.71"/><path fill="#B4A1CA" d="M245 313c2.939 1.352 5.292 2.9 7.75 5l1.86 1.563C256 321 256 321 256 323l1.703.836c2.383 1.208 4.715 2.486 7.047 3.789l2.422 1.352L269 330v2l1.61.348c4.093 1.117 7.971 2.822 11.906 4.398 7.332 2.639 13.934 3.608 21.671 3.879l2.779.115c7.013.272 14.015.377 21.034.26v1a117 117 0 0 1-16.75 1.188l-2.376-.003c-8.02-.084-15.58-1.264-23.312-3.373-3.41-.777-5.3-.998-8.562.188l-1 2 4 5c-2.929-.628-5.361-1.586-8-3v-2l-2.176-.727c-3.242-1.462-5.386-3.256-8.012-5.648l-2.605-2.336c-2.02-2.096-2.933-3.74-4.207-6.289l-3-1c-1.187-2.562-1.187-2.562-2-5h-2c-2.042-2.905-3-4.401-3-8"/><path fill="#5BC5E9" d="M255 72v3l-2.781.953c-7.404 2.582-14.359 5.373-21.242 9.16C229 86 229 86 226 86v2l-1.871.883c-5.36 2.594-10.278 5.416-15.121 8.883-2.024 1.244-3.687 1.797-6.008 2.234l1-5h4v-2h3v-2h2v-2h7l.313-1.937L221 85l3-1v-2c-5.327-.184-8.93.274-14 2-2.332.075-4.669.093-7 0 12.855-8.57 36.767-12.332 52-12"/><path fill="#782AC4" d="M232 384h3v2l6 2v2l1.78.386c3.575.989 6.679 2.954 9.907 4.739 18.1 9.739 37.106 16.095 57.313 19.875v2c-14.657.355-28.597-.903-42.937-4l-2.352-.503C259.25 411.25 259.25 411.25 257 409h18l-5-2v-2l-1.617-.48c-5.368-1.681-10.184-3.837-15.121-6.532-2.462-1.255-2.462-1.255-6.262-.988v-2l-2.875-.812C241 393 241 393 239 390l-3.062-.937L233 388c-.875-2.125-.875-2.125-1-4"/><path fill="#7EDDF6" d="m275.39 44.691 3.305-.045c3.519-.04 7.037-.065 10.555-.084l3.612-.018c20.547-.045 40.12.901 59.138 9.456q3.396 1.247 6.813 2.438c16.455 5.83 16.455 5.83 19.187 8.562v3l2 1c-4.371-.633-7.805-2.236-11.75-4.187-29.743-14.238-60.985-18.034-93.625-17.876q-2.722.008-5.445.014-6.59.017-13.18.049v-1c6.48-.947 12.846-1.22 19.39-1.309"/><path fill="#7315D4" d="M202 358c3.835 1.592 6.538 4.178 9.5 7 9.55 9.493 9.55 9.493 20.5 17l-1 2-5.176-2.246c-1.581-.654-3.2-1.213-4.824-1.754v-3c-5.62.401-8.087 2.18-12 6v2c-3.659-1.57-6.255-3.832-9.187-6.5l-2.668-2.406C195 374 195 374 194 372c2.468 1.152 4.048 2.048 6 4 2.57.648 2.57.648 5 1l.25-1.75c.955-2.866 2.535-4.25 4.75-6.25h-2v-4l-6 3c-2-3-2-3-1.687-5.125C201 361 201 361 202 360z"/><path fill="#60C6E7" d="M415 412c-1.503 4.208-4.233 5.803-8 8h-2v2c-1.66 1.191-1.66 1.191-4.062 2.563-3.313 1.907-6.599 3.836-9.836 5.867l-2.024 1.255a434 434 0 0 0-3.986 2.507c-1.652 1.014-3.369 1.92-5.092 2.808l-3-1 3.465-1.828 4.473-2.422 2.287-1.2 2.177-1.19 2.016-1.08c1.984-1.605 2.214-2.802 2.582-5.28h3c-3.352-1.117-4.731-.847-8.125-.125l-2.695.555c-2.143.364-2.143.364-3.18 1.57-2.522.4-5.03.75-7.562 1.063l-2.155.275q-2.64.335-5.283.662v2h-15c2.774-1.85 4.09-2.394 7.227-3.043l2.591-.555 2.807-.59a466 466 0 0 0 25.813-6.437l3.172-.876c4.248-1.2 8.388-2.408 12.43-4.198 2.953-1.298 4.78-1.59 7.96-1.301"/><path fill="#7416D1" d="M241.234 392.102c1.766.898 1.766.898 4.391 2.523 2.274 1.494 2.274 1.494 4.75 1.813 3.71.794 6.388 2.595 9.625 4.562v2l1.813.438c1.749.45 3.474.99 5.187 1.562l-1 4c-3.683-.6-7.345-1.25-11-2l-2.625-.437C250 406 250 406 247 404l-2.437-.437c-2.93-.644-4.255-1.687-6.563-3.563l-2.75-1.562L233 397v-2l-5-1 1.938-.375L232 393l1-2c3.593-1.198 4.895-.428 8.234 1.102"/><path fill="#0FB9F2" d="M418 78h2v2h2v2h2v2h2c1.56 1.74 3.05 3.543 4.5 5.375 3.108 3.94 3.108 3.94 6.5 7.625.633 2.164.633 2.164 1.125 4.625l.508 2.477L439 106h2c4.085 5.02 4.085 5.02 3.75 8.875L444 117h-2v-3l-1.656-.172c-3.372-1.191-5.424-3.552-7.844-6.078l-1.434-1.45A106 106 0 0 1 423 97l1-2 4 1-1-5h-2l-1.312-2.937c-1.39-3.34-1.39-3.34-4.688-4.063z"/><path fill="#A2E3F4" d="M232 424c5.127 1.043 10.029 2.305 15 3.938 14.696 4.53 28.822 5.55 44.1 5.453 3-.016 6 0 9.002.02 14.182.013 29.153-.307 42.95-3.953 2.975-.7 5.907-.516 8.948-.458v1l-3.465.84-4.473 1.098-2.287.552c-3.688.648-3.688.648-6.775 2.51-2.055.16-4.116.252-6.176.316l-3.917.128-4.22.118-2.146.064c-11.516.338-23.02.588-34.541.374l-3.332-.054c-3.64-.068-7.279-.16-10.918-.259l-3.466-.067c-6.458-.212-11.376-1-17.284-3.62a121 121 0 0 0-3.875-1.125C242 430 242 430 240 429v-2l-2.875-.375C234 426 234 426 232 424"/><path fill="#865FD5" d="M146 223h1l-1 13h2a2642 2642 0 0 0-.11 14.844q-.016 2.526-.04 5.052c-.025 2.417-.036 4.835-.045 7.252l-.032 2.29c0 1.855.105 3.71.227 5.562l2 2-1 1c.09 2.535.237 5.036.438 7.563l.158 2.154q.196 2.642.404 5.283h2l.375 3.125c.564 3.496 1.412 6.559 2.625 9.875h-3v-2h-2c-5.394-13.484-6.173-26.687-6.13-41.084q.005-3.222-.007-6.443c-.012-23.025-.012-23.025 2.137-29.473"/><path fill="#A0C5EF" d="M175 459c2.754.616 5.15 1.442 7.688 2.672l2.096 1.006L187 463.75c20.48 9.733 42.377 18.3 65 21.25v2c-12.75.436-25.775.075-38-4v-3h-2v-3l-2.937-1.031c-7.44-2.668-14.671-5.57-21.75-9.094l-1.995-.982c-3.807-1.937-7.082-4.108-10.318-6.893"/><path fill="#6EB7EF" d="M74 174c.688 1.563.688 1.563 1 4a411 411 0 0 1-2.134 4.87c-1.672 4.11-2.726 8.41-3.866 12.692l-.794 2.953C66.225 205.97 64.448 213.422 63 221c-.182.882-.364 1.763-.55 2.672C58.833 242.77 58.607 262.628 58 282h-1q-.037-10.44-.055-20.88-.008-3.555-.02-7.11-.017-5.097-.023-10.194l-.015-3.232v-2.972l-.007-2.632C57 233 57 233 58 232c.298-1.775.539-3.56.754-5.348l.4-3.271.408-3.443A3225 3225 0 0 0 61 208l2-.001-.312-2.812c-.03-4.734 2.049-8.428 4.07-12.614 1.975-4.093 3.144-7.75 3.68-12.262.565-3.328.912-4.354 3.562-6.312"/><path fill="#62C4E5" d="M81 223h1q-.212 5.063-.437 10.125l-.12 2.883-.127 2.812-.11 2.571C81 244 81 244 80.488 246.827c-.574 3.723-.633 7.37-.622 11.126l-.003 2.247q0 2.334.006 4.67.005 3.58-.007 7.161 0 2.274.004 4.547l-.006 2.165c-.04 3.754-.04 3.754 1.139 7.257a71 71 0 0 1 .246 4.219l.096 2.562.096 2.719c.256 6.363.598 12.443 2.257 18.625.36 2.218-.022 3.75-.695 5.875-8.362-31.944-9.767-64.794-2-97"/><path fill="#3A106D" d="m285 339 3.328.98c6.274 1.58 12.739 1.746 19.172 2.145l3.938.262q4.78.315 9.562.613c-2 2-2 2-4.015 2.243l-2.45-.013-2.674-.005-2.798-.038-2.788-.001c-6.853-.045-6.853-.045-10.275-1.186l1 3c-.437 2.188-.437 2.188-1 4h-3v-2l-2.25.125c-2.865-.13-4.255-.835-6.75-2.125l-2 1a125 125 0 0 1-6-4v-2l-2-1c3.668-3.668 6.118-3.058 11-2"/><path fill="#0262EF" d="m114 419 1 3 3-1c4.117 1.9 6.274 4.456 9 8l3 2v4l5 1c-2.312 2.063-2.312 2.063-5 4l-3-1v2l2 1-1 3h-4v-3l-5-1v-5l-3 1v-2l-2-1 4-1-1-3 4-3-2-4-5 1-2-3z"/><path fill="#4085E3" d="M176 469c2.625.375 2.625.375 5 1v2h10l1-3c2.885.664 5.574 1.547 8.328 2.629l2.422.947 2.5.986 2.547.999q3.102 1.216 6.203 2.439l-2 1v2h2v2c-9.866-.822-18.944-2.957-28-7-3.982-1.39-7.987-2.702-12-4z"/><path fill="#92DAF0" d="M119 216h1c-.44 4.115-.885 8.217-1.485 12.312-1.576 11.123-1.907 22.089-1.89 33.313l-.005 2.788c-.004 12.665.633 24.594 3.603 36.958C121 305 121 305 120 308c-5.21-5.921-5.296-12.995-5.754-20.523.024-2.418.024-2.418-1.246-3.477a149 149 0 0 1 .016-7.129l.046-2.222q.084-3.606.188-7.212l.067-2.466c.468-16.477 1.39-32.986 5.683-48.971"/><path fill="#79AEF0" d="M332 124v1l-1.882.028c-22.13.413-44.241 2.163-65.118 9.972l-1.987.728c-7.503 2.764-14.312 5.89-21.013 10.272h-3v-3c3.435-2.29 4.985-2.178 9-2v-3c6.9-2.36 13.824-4.657 21-6v-2c6.682-3.5 13.569-4.182 21-5l3.035-.344c12.935-1.177 25.992-.744 38.965-.656"/><path fill="#B7ABF0" d="M185 206c2 3 2 3 1.875 5.563-.732 2.874-1.612 5.293-2.762 8.007-2.087 5.163-3.537 10.326-4.8 15.743l-.643 2.568c-2.927 12.326-2.81 24.84-2.732 37.432q.008 2.151.013 4.302.017 5.193.049 10.385h-1c-1.056-8.234-1.156-16.394-1.125-24.687l.006-2.012c.09-26.899.09-26.899 4.119-36.301.482-2.34.752-4.62 1-7h2l.313-3.062c.724-4.15 1.91-7.152 3.687-10.938"/><path fill="#866FA4" d="m288.188 347.438 2.73.87L293 349v2l11 1v2l2.643-.016q4.894-.026 9.79-.039 2.11-.008 4.222-.02 3.05-.017 6.099-.023l3.697-.016c3.586.115 7.007.568 10.549 1.114 1.666.035 3.334.05 5 0-13.153 7.261-36.118 3.85-50 0-5.128-1.689-10.166-3.593-15-6l-1-2c3.552-1.184 4.698-.695 8.188.438"/><path fill="#7E34D3" d="M162 327a279 279 0 0 1 3.438 2.313l1.933 1.3C169 332 169 332 170 335l3 2c.688 3.625.688 3.625 1 7l3 1-1 1 1.75 1.25c2.318 1.803 4.348 3.508 6.25 5.75v4c2.23 2.813 2.23 2.813 5 5h3v4c-6.06-.95-10.716-6.22-14.473-10.793C175 351.538 175 351.538 175 349h-2c-11-14.739-11-14.739-11-22"/><path fill="#896FA9" d="M245 313c2.939 1.352 5.292 2.9 7.75 5l1.86 1.563C256 321 256 321 256 323l1.71.855L260 325l2.29 1.113c6.395 3.284 6.395 3.284 8.147 6.637L271 335l2 1v2c-3.289.576-5.307.486-8.074-1.453a124 124 0 0 1-7.535-7.223c-1.367-1.457-1.367-1.457-3.454-2.199-2.649-1.538-3.037-3.276-3.937-6.125h-2c-2.042-2.905-3-4.401-3-8"/><path fill="#6EB7CA" d="M424 240c7.163 12.962 3.756 35.334 0 49-1.685 5.128-3.593 10.166-6 15l-2 1-1-5h2l.813-3.687a1523 1523 0 0 1 3.406-14.907L422 278l.535-1.88c1.94-7.339 1.687-14.64 1.59-22.183q-.016-2.034-.027-4.068-.036-4.935-.098-9.869"/><path fill="#9DE0F2" d="M89 334c2.645 3.125 3.844 6.088 5 10h2l.313 1.938L97 348l3 1 1 3 2 1-.312 2.438c.426 4.863 2.397 8.661 5.312 12.562l3 1 1 3 3 2c.688 2.625.688 2.625 1 5l3 1 1 3 2 1c.625 3.063.625 3.063 1 6h-2l-2-5h-2c-1.417-1.769-1.417-1.769-3.047-4.242l-1.812-2.735-1.891-2.898-1.844-2.781c-5.711-8.665-11.13-17.436-15.781-26.719l-1.074-2.074C89.787 340.044 89 338 89 334"/><path fill="#9DDDEF" d="M463 138c2.984 2.984 4.76 5.884 6.688 9.563l1.032 1.96c2.77 5.337 5.353 10.754 7.842 16.227.36.774.718 1.548 1.087 2.346 2.47 5.548 2.47 5.548 1.351 8.904-2.157-2.014-3.658-3.902-5.043-6.504l-1.064-1.994-1.08-2.065-1.116-2.076C470 159.262 470 159.262 470 157h-2c-.315-.58-.63-1.16-.953-1.758-2.5-4.564-5.085-8.963-8.047-13.242l1-2c4 4.75 4 4.75 4 7h2z"/><path fill="#4C91ED" d="M99 402c3.537 1.529 5.996 3.642 8.813 6.25 3.05 2.806 6.115 5.55 9.312 8.188.949.845 1.898 1.69 2.875 2.562v2l1.813.875C124 423 124 423 127 425v2l2.313.75c2.923 1.36 3.987 2.566 5.687 5.25-3.557-.61-6.81-1.276-10-3a312 312 0 0 1-2-5c-2.93-2.178-4.323-3-8-3v-3l-4-2v-2l-1.812.688c-2.188.312-2.188.312-3.938-.75-1.735-2.69-1.459-4.807-1.25-7.938l-3-1v-2h-2v4h-5z"/><path fill="#7AD7DD" d="M398 190h2c1.727 1.898 1.727 1.898 3.625 4.375l1.914 2.46C407 199 407 199 407 201h2c2.286 3.151 4.105 6.603 6 10l1.363 2.398c4.275 7.968 8.101 17.437 7.637 26.602-2.351-2.878-3.722-5.495-4.937-9l-1.024-2.902q-1.071-3.197-2.078-6.414l-1.024-3.246-.91-3.004c-.894-2.743-.894-2.743-4.027-4.434v-2l-2-1c-3.326-3.854-5.03-7.01-6-12a100 100 0 0 0-4-3z"/><path fill="#7EB3F2" d="M320 96v1c-6.19.588-12.354 1.053-18.57 1.21l-3.274.087q-3.34.08-6.68.133l-3.234.093-2.91.06L283 99l-2 3c-1.941.033-3.885.054-5.824-.027-3.307.041-6.051.985-9.176 2.027l-1-2c-2.025-.652-2.025-.652-4-1 19.479-5.022 38.896-7.872 59-5"/><path fill="#2EB8BF" d="m327.125 158.875 3.477.027q4.2.036 8.398.098c1.125 3.75 1.125 3.75 0 6l3 1c-5.461-.401-10.818-.906-16.187-2-7.205-1.403-14.497-1.651-21.813-2v-1c7.772-1.95 15.138-2.246 23.125-2.125"/><path fill="#7516D1" d="M221 377v3l1.875.25c2.125.75 2.125.75 3.375 2.813L227 385l-5 1-1 3c-4.86-.607-8.74-2.728-13-5 3.272-4.656 7.018-8.994 13-7"/><path fill="#C7F3FE" d="m106 61 2 1-2.492 2.09C88.265 77.313 88.265 77.313 75 94c-1.87 3.351-2.75 4.833-6 7l-1 3-6 3c-2.814 2.562-2.814 2.562-5 5 1.654-3.583 3.68-6.81 6-10h2l.875-1.812C67 98 67 98 69 95h2l.746-1.73c1.463-2.648 3.18-4.455 5.317-6.598l2.414-2.422L82 81.75l2.523-2.547 2.415-2.406 2.214-2.208C91 73 91 73 93 73v-2a139 139 0 0 1 6.5-5.125l1.879-1.418A965 965 0 0 1 106 61"/><path fill="#9A9EEA" d="m177 151 2 1c-1 3-1 3-2.937 4.875-2.284 2.353-2.99 4.05-4.063 7.125l-1.562 3.313c-1.17 3.002-1.69 4.956-2 8.062L168 179l-2 1v-3h-3l-.375 2.25c-.58 2.551-1.362 4.477-2.625 6.75h-2l-1 3c-1-3-1-3 .406-6.406q1.03-2.055 2.094-4.094l1.106-2.164c3.122-6.01 6.617-11.714 10.394-17.336l1.254-2.004c.86-1.368 1.793-2.69 2.746-3.996h2z"/><path fill="#B8EBF1" d="M388 200c3.382 2.783 4.997 6.583 6.875 10.438l1.06 2.157c6.44 13.227 9.24 23.512 9.19 38.28l.012 3.434c-.01 8.994-.394 17.155-3.2 25.754l-1.097 3.41L400 286c-1.218-3.5-.744-5.576.375-9.062 6.574-22.724 2.522-47.75-8.687-68.25l-2.114-3.739C388 202 388 202 388 200"/><path fill="#21B4EA" d="M305 44v1l-3.51.06a4106 4106 0 0 0-13.128.257q-2.82.057-5.638.105c-10.54.18-20.86.61-31.296 2.15-5.148.643-10.251.604-15.428.428v-1c21.948-5.121 46.78-6.902 69-3"/><path fill="#60CCF6" d="M166 29c-1.514 3.853-3.484 5.83-7 8-2.117.297-2.117.297-4.437.438-3.518.222-5.258.746-7.875 3.124C144 43 144 43 140 43v3l-8-1c2.05-2.228 3.878-3.606 6.625-4.867l2.126-.988 2.249-1.02 2.3-1.059a1406 1406 0 0 1 4.572-2.092c1.87-.856 3.73-1.73 5.589-2.607L158.375 31l2.523-1.187C163 29 163 29 166 29"/><path fill="#63D1F2" d="M339 53c9.817-.475 17.544 2.314 26.527 6.016 3.768 1.5 7.61 2.752 11.473 3.984l.375 2.438L378 68l2 1c-4.371-.633-7.805-2.236-11.75-4.187-6.395-3.096-12.884-5.592-19.614-7.859C345.299 55.83 342.09 54.701 339 53"/><path fill="#CDFBFC" d="m327 157.75 3.637-.023 3.488.007 3.133.007c2.747.26 4.399.848 6.742 2.259l-2.675-.016q-4.933-.025-9.868-.039-2.131-.008-4.262-.02-3.072-.018-6.144-.023l-3.73-.016c-2.913.1-5.494.436-8.321 1.114l1.738.078c6.54.437 12.856 1.532 19.262 2.86l2.536.514 2.401.513 2.153.457C339 166 339 166 342 168c-3.89-.542-7.769-1.12-11.645-1.754-11.556-1.835-22.66-2.632-34.355-2.246v-2c9.86-4.248 20.42-4.32 31-4.25"/><path fill="#8AD9F0" d="m136 125 2 1-1.375 1.188c-1.753 1.727-1.753 1.727-2.437 4.062-2.036 4.713-5.118 8.903-9.938 10.875L122 143a78 78 0 0 0-2 5c-7.525 9.763-7.525 9.763-12 12 1.472-4.313 3.766-7.718 6.5-11.312l1.223-1.667c1.04-1.381 2.153-2.707 3.277-4.021h2l.875-1.812C123 139 123 139 125 136h2l.773-1.766c1.344-2.448 2.845-4.051 4.852-5.984l1.914-1.86z"/><path fill="#84B1E7" d="M444 177c5.216 2.608 7.011 11.54 8.813 16.75l.7 1.97c1.142 3.416 1.893 5.864.487 9.28-3.228-2.77-5.12-6.35-7.187-10l-1.116-1.906C443 188.37 443 188.37 443 185h3v-2h-2z"/><path fill="#7194EC" d="M218 119v2c-.52.23-1.039.461-1.574.7-4.68 2.187-7.88 4.459-11.426 8.3l-2.187 1.563c-1.933 1.324-1.933 1.324-2.813 3.437-1.887 3.774-5.374 5.187-9 7-4.302 2.712-8.148 5.699-12 9 2.683-6.341 7.613-10.93 13-15h2v-2h2v-2c1.62-1.313 1.62-1.313 3.867-2.785l2.434-1.608c.85-.55 1.699-1.102 2.574-1.67l2.55-1.681C215.429 119 215.429 119 218 119"/><path fill="#1071F0" d="M322 97c7.442-.33 14.133.578 21.375 2.25l3.056.687c9.204 2.117 18.26 4.447 26.569 9.063v1q-2.595-.214-5.187-.437l-2.918-.247c-2.683-.293-5.257-.759-7.895-1.316l-2.5-.312c-3.183-.876-4.941-2.629-7.5-4.688-5.145-2.079-10.42-2.82-15.875-3.625l-2.664-.406Q325.23 98.478 322 98z"/><path fill="#15B1BF" d="M391 192h2l-2 6 2 1-2 1 2 1v3l6 1-.187 3.938c.007 4.88.643 9.81 3.187 14.062 2.039.808 2.039.808 4 1-1.875 4.75-1.875 4.75-3 7l-.812-2.062a261 261 0 0 0-8.313-18.438l-1.02-2.066c-1.373-2.731-2.743-5.286-4.585-7.73-1.703-2.285-1.501-3.929-1.27-6.704h3z"/><path fill="#9ADCEF" d="M242 459q5.313.212 10.625.438l3.027.119 2.95.127 2.697.11c2.701.206 2.701.206 5.532.715 3.77.584 7.473.653 11.278.659l2.324.01q2.426.007 4.851.007c2.445.002 4.889.02 7.333.04 10.765.04 10.765.04 21.349-1.794 2.383-.505 4.605-.498 7.034-.431-4.931 4.931-14.835 4.237-21.46 4.304l-2.99-.003-3.2.013q-3.331.008-6.663.002c-3.349-.003-6.696.02-10.044.045-11.906.034-23.051-.495-34.643-3.361z"/><path fill="#B390E4" d="M176 290c2.385 3.896 2.88 8.208 3.688 12.625 1.535 7.962 3.911 15.23 7.114 22.674 2.293 5.416 2.293 5.416 1.198 8.701v-2l-4 1 .25-1.937c-.305-3.738-1.583-6.423-3.18-9.782L180 319l-1.062-2.223c-1.303-3.857-1.66-7.677-2.063-11.714l-.262-2.381c-.448-4.248-.71-8.405-.613-12.682"/><path fill="#92E1F7" d="M256 47v1l-1.866.256c-16.13 2.267-31.685 5.673-47.371 10.051-2.906.729-5.803 1.238-8.763 1.693 3.298-2.199 6.58-3.303 10.313-4.5l1.974-.645q2.856-.93 5.713-1.855l3.23-1.156C222 51 222 51 226 51v-2c3.5-.34 7-.67 10.5-1 .982-.095 1.965-.19 2.977-.29 5.537-.516 10.962-.816 16.523-.71"/><path fill="#61C9F1" d="M154 76h6c-3.876 5.251-8.277 8.83-14 12h-2v2c-1.531 1.29-1.531 1.29-3.5 2.625l-1.969 1.352L137 95l-2-1 3-6 1.063-2.312C140 84 140 84 142 83v2h2l2-4h4l1-2h3z"/><path fill="#673BCA" d="M174 243h1l-.048 3.063c-.415 25.482-.415 25.482 2.38 50.765.94 5.386.973 10.722.668 16.172h-1l-.184-1.898-.254-2.477c-.08-.812-.162-1.624-.246-2.46-.207-2.208-.207-2.208-1.316-4.165a221 221 0 0 1-1-6.312c-.655-4.56-.655-4.56-1.523-9.082-.473-2.584-.606-4.94-.61-7.563l-.006-2.85.014-3.005.008-3.085c.144-23.157.144-23.157 2.117-27.103"/><path fill="#1177E0" d="M56 254h1l.076 2.348c.572 18.41.572 18.41 1.736 36.789.303 4.62.273 9.235.188 13.863-2.803-4.205-2.433-8.008-2.656-12.969-.13-3.205-.13-3.205-2.344-6.031-.151-3.246-.151-3.246-.012-7.223l.069-2.125q.075-2.22.164-4.44c.091-2.27.166-4.538.238-6.808.39-11.101.39-11.101 1.541-13.404"/><path fill="#B4E8F7" d="M81 223h1a1402 1402 0 0 1-.375 10.25c-.03.968-.062 1.936-.094 2.934l-.117 2.832-.095 2.602C81 244 81 244 80 245.768c-1.572 3.509-1.36 7.152-1.414 10.935l-.059 2.539a1580 1580 0 0 0-.152 8.008q-.057 2.719-.117 5.438Q78.115 279.343 78 286h-1c-2.682-21.134-.981-42.345 4-63"/><path fill="#0F66E7" d="m110 432 1.688.875c2.323 1.206 2.323 1.206 5 1.938L119 436c.813 2.625.813 2.625 1 5l4 1v3l2.313.438C129 446 129 446 132 447v4l2 1c-6.289-1.04-11.718-5.618-17-9l-2.371-1.465c-2.864-1.863-4.443-3.023-5.629-6.285 0-2.25 0-2.25 1-3.25"/><path fill="#38C4EE" d="M328 26c11.665 1.75 21.663 6.592 32 12q1.997 1.007 4 2c-2.633 1.316-3.802.748-6.625.063l-2.477-.59L353 39v-2h-5v-2l-3.312-.375C341 34 341 34 338 32a506 506 0 0 0-6-2 87 87 0 0 1-4-2z"/><path fill="#37347E" d="M381 337h2c-1.146 3.438-1.516 3.578-4.57 5.156l-2.22 1.16-2.335 1.184-2.266 1.184C358.513 352.46 358.513 352.46 351 352l1.938-.812c2.393-1.075 2.393-1.075 3.062-4.188 2.063-.687 2.063-.687 4-1v2h3l1-3 5-1v-3c1.563-1.687 1.563-1.687 4-3a98 98 0 0 1 7 0z"/><path fill="#5DD1F1" d="M284 17c15.525.318 29.553 1.98 44 8v1c-7.819-.466-15.364-1.225-23-3v-2l-2.75.125c-5.459 0-10.956-.824-16.25-2.125z"/><path fill="#06B9F5" d="M432 99h3v2h2l2 5h2c4.085 5.02 4.085 5.02 3.75 8.875L444 117h-2v-3l-1.687-.187c-3.383-1.19-5.016-3.093-7.313-5.813-2.276-5.172-2.276-5.172-1-9"/><path fill="#0EB9F5" d="m380 69 8 1 1 3 7-1v2h4v5l1.813.125C404 80 404 80 405.75 83.063L407 86c-3.313-1.23-6.107-2.602-9-4.625-5.038-3.453-10.24-6.592-15.473-9.738L380 70z"/><path fill="#51BCE3" d="M344 453c-10.238 3.768-19.856 6.653-30.742 7.676-3.067.22-3.067.22-5.227.837-3.384.811-6.835.608-10.297.585l-2.404-.005c-2.527-.005-5.053-.018-7.58-.03q-2.574-.009-5.148-.014Q276.3 462.032 270 462v-1l2.922-.076q5.348-.142 10.695-.296 2.317-.065 4.636-.125 3.324-.088 6.65-.187l2.105-.05c3.28.169 3.28.169 5.992-1.266 2.626-.356 5.24-.662 7.875-.937 9.332-1.045 18.36-2.107 27.152-5.575 2.343-.58 3.683-.135 5.973.512"/><path fill="#CFABED" d="M232 384h3v2l6 2v2l1.78.386c3.575.989 6.68 2.953 9.907 4.739C263.048 400.74 273.776 405.387 285 409c-4.019 1.34-6.485-.02-10.25-1.5l-2.128-.813c-5.714-2.226-11.266-4.756-16.748-7.501-3.317-1.627-5.077-2.186-8.874-2.186v-2l-2.875-.812C241 393 241 393 239 390l-3.062-.937L233 388c-.875-2.125-.875-2.125-1-4"/><path fill="#1E61E3" d="M218 119h4l-1 4h-2l-1 3-10 2v7l-7 1c0-4 0-4 1.938-6.375C212.315 121 212.315 121 218 121z"/><path fill="#74D8F1" d="M407 86c4.942 1.14 7.61 2.246 11 6l3 1v2h2a82 82 0 0 1 3.625 4.5c6.458 8.819 6.458 8.819 15.375 14.5v4h-2v-2h-2c-1.516-1.574-1.516-1.574-3.25-3.687-2.25-2.666-4.45-5.023-7.187-7.188L425 103v-2h-2v-2h-2v-2l-1.672-.746c-2.792-1.504-5.11-3.328-7.578-5.317l-2.703-2.16L407 87z"/><path fill="#07BEC6" d="m383 177 2 1v2h2l1 4-9 3-1-5-4 1-2-4 3-1 2 1v-2c2.517-1.258 3.378-.82 6 0"/><path fill="#72CAEA" d="M94 182c1.33 2.66.523 4.061-.328 6.793-1.082 3.552-1.967 7.158-2.89 10.754C90 202 90 202 88 205a81 81 0 0 0-.937 5.25c-.779 4.69-1.98 8.49-4.063 12.75h-1c.574-6.732 1.855-12.896 3.75-19.375l.801-2.78c1.95-6.583 4.23-12.763 7.449-18.845"/><path fill="#1F74E8" d="M349 102v1c-5.843.22-10.973-.47-16.68-1.758L330 101l-2 2-1-3h-23v-2c13.892-4.151 31.354.425 45 4"/><path fill="#74CCE9" d="M232 424a144 144 0 0 1 15.375 4c5.82 1.837 11.596 3.082 17.625 4v2h5v1c-7.817.322-13.84.21-21-3a112 112 0 0 0-3.875-1.125C242 430 242 430 240 429v-2l-2.875-.375C234 426 234 426 232 424"/><path fill="#79B3F3" d="M373 110c9.263 1.49 17.174 6.896 24.688 12.25l1.855 1.322c4.322 3.159 4.322 3.159 5.457 5.428-7.625-1.75-7.625-1.75-11-4v-2h-3v-2h-4v-2h-3l-1-3c-2.319-1.463-2.319-1.463-5.062-2.687l-2.786-1.325L373 111z"/><path fill="#1B73DB" d="M20 296h1v5h2l.313 3.938c.535 4.964 1.936 9.404 3.687 14.062h4c-.095.568-.19 1.137-.29 1.723-.775 5.407-.569 9.138 1.29 14.277-3.339-2.226-3.574-2.861-4.754-6.508l-.9-2.742-.909-2.875-.92-2.805c-2.63-8.118-4.823-15.48-4.517-24.07"/><path fill="#136AE4" d="m294 122 3 1c2.87.016 5.71-.026 8.578-.121l2.56-.072q4.056-.116 8.112-.245l8.069-.234q2.51-.072 5.019-.15 2.28-.069 4.559-.12c1.975-.055 3.949-.156 5.922-.261C343 122 343 122 347 125h-54z"/><path fill="#86D3ED" d="M148 364a141 141 0 0 1 5 5v2h2v2h2c4 4.47 4 4.47 4 7h2v2l1.766.813c2.262 1.202 4.04 2.525 5.984 4.187l1.86 1.563C174 390 174 390 174 392c-2.932-1.315-4.749-2.749-7-5-2.345-1.503-4.683-2.846-7.187-4.062C158 382 158 382 156 380h2l-1-3-2-1v-2h-2v-2l-4-1z"/><path fill="#196BDF" d="M176 469c2.625.375 2.625.375 5 1v2h10l1-3c3.147.7 6.026 1.76 9 3v1h-7l3 5c-7.935-1.494-15.488-4.079-23-7z"/><path fill="#4C98E6" d="M14 269c2.416 2.878 3.478 5.057 4.125 8.75l.473 2.684c1.066 6.8 1.645 13.559 2.148 20.421.302 3.737.744 7.432 1.254 11.145-5.323-5.323-4.934-16.07-5.86-23.256q-.401-3.104-.816-6.207C14 272.437 14 272.437 14 269"/><path fill="#AEE5F2" d="M415 412c-1.502 4.206-4.286 5.739-8 8l-2-1 1-2c-7.436 1.51-14.74 3.05-21.914 5.547-2.392.52-3.762.11-6.086-.547l2.184-.595c3.294-.9 6.586-1.809 9.878-2.717 1.134-.31 2.268-.618 3.436-.936 20.95-5.802 20.95-5.802 21.502-5.752"/><path fill="#4E8FE3" d="m43 362 1.875 1.5c1.964 1.692 1.964 1.692 4.125 1.5v3h2c1.46 2.647 2 3.894 2 7h2v2h2l2 9c-3.588-3.389-6.457-6.761-9-11v-2h-2a805 805 0 0 1-2.5-4.375l-1.406-2.46C43 364 43 364 43 362"/><path fill="#BDA6F0" d="M146 223h1l-1 13h2l-1 16h-1l-1 21h-1q-.037-6.665-.055-13.33-.008-2.257-.02-4.515C143.78 229.66 143.78 229.66 146 223"/><path fill="#E8D2F8" d="M285 410c5.563.71 10.971 1.816 16.438 3.063l2.505.564q3.03.683 6.057 1.373v2c-8.5.206-16.857.09-25.312-.875l-2.19-.238c-3.524-.437-5.49-.881-8.498-2.887l2.168.184c7.608.64 15.219 1.237 22.832 1.816l-14-4z"/><path fill="#6F1EC5" d="M202 358c4.25 1.598 6.822 4.813 9.75 8.125l1.535 1.707A876 876 0 0 1 217 372h-6l-1 2v-3l-1-2a140 140 0 0 1-1-4l-6 3c-2-3-2-3-1.687-5.125C201 361 201 361 202 360z"/><path fill="#71CDE8" d="M125 321c2.48 2.48 3.072 4.636 4.25 7.938 2.097 5.65 4.634 10.742 7.71 15.917L138 347l-1 2-1-3-1.875-.875c-2.937-1.555-3.816-3.094-5.125-6.125.313-3.312.313-3.312 1-6l-1.937-.312L126 332c-1.283-3.85-1.066-6.947-1-11"/><path fill="#BE8FE5" d="m209 385 3.188.938c3.594 1.092 3.594 1.092 6.5 1.437 3.034.82 4.254 2.293 6.312 4.625l1.75 1.625C228 395 228 395 228 397l2.625.813c3.293 1.158 6.286 2.57 9.375 4.187-3 1-3 1-6.625-.59a288 288 0 0 1-4.375-2.348l-2.293-1.234c-6.262-3.44-12.24-7.2-17.707-11.828z"/><path fill="#9892BB" d="M367 326v2h-3l-.312 1.938L363 332l-3 1-2 2c-4.144 1.695-7.536 2.213-12 2l-1 2-5-1c3.028-2.018 5.714-3.075 9.125-4.312 5.012-1.882 9.587-4.008 14.168-6.77C365 326 365 326 367 326"/><path fill="#77B0F1" d="M359 129c4.693-.184 7.707.263 12 2 2.753.783 5.53 1.454 8.313 2.125.74.182 1.48.364 2.244.55q2.72.667 5.443 1.325v2l3 1v2c-5.7-.834-10.844-3.23-16.143-5.385A98 98 0 0 0 359 130z"/><path fill="#0262ED" d="M182 465c3.719.507 6.735 1.116 10 3l-1 5c-6.625.125-6.625.125-10-1-.812-1.875-.812-1.875-1-4z"/><path fill="#95C2F1" d="m67 396 5 5 1.813 1.688C75 404 75 404 75 406h4c1.633 1.68 1.633 1.68 3.125 3.875 1.555 2.248 2.937 4.187 4.875 6.125a246 246 0 0 1 3.125 4.125l1.633 2.195L93 424c-3.402-1.628-6.168-3.483-9-6v-2h-2c-4-4.47-4-4.47-4-7h-2v-2h-2c-1.727-1.898-1.727-1.898-3.625-4.375l-1.914-2.46C67 398 67 398 67 396"/><path fill="#6BC8E8" d="m384 422-1 3-15 2v2h-15c3.556-2.37 7.024-3.134 11.125-4.062l2.313-.535C372.255 423.093 378.01 422 384 422"/><path fill="#8EB9F2" d="M273 132q-3.5 1.408-7 2.813l-2.09.841c-3.428 1.375-6.856 2.7-10.348 3.909-3.623 1.462-6.594 3.244-9.8 5.449C242 146 242 146 239 146v-3c3.435-2.29 4.985-2.178 9-2v-3c4.5-1.54 9.036-2.921 13.598-4.266 1.966-.6 3.907-1.281 5.84-1.984C270 131 270 131 273 132"/><path fill="#7ADAF4" d="M418 78h2v2h2v2h2v2h2a103 103 0 0 1 4.5 5.25l2.406 2.953c1.681 2.246 2.975 4.244 4.094 6.797l-1.61-1.242-2.14-1.633-2.11-1.617c-2.07-1.554-2.07-1.554-4.308-2.512-2.823-1.535-3.453-4.179-4.832-6.996l-3-1z"/><path fill="#1C91AB" d="M404 232c2 4 2 4 2 7l2 1c-.08 4.292-.193 8.583-.312 12.875l-.069 3.707-.107 3.535-.08 3.27L407 266l-3 2z"/><path fill="#15A3EC" d="m94 73 1 3c-1.363 2.191-1.363 2.191-3.312 4.563l-1.926 2.378C86.805 86.396 85.412 87.16 81 88a110 110 0 0 0-4 2c12.055-14.527 12.055-14.527 17-17"/><path fill="#4C93EA" d="M390 140c6.411-1.012 10.999 2.402 16 6 2.664 2.395 3.856 3.568 5 7-4.202-1.519-7.827-3.593-11.625-5.937l-1.734-1.053c-2.858-1.764-5.41-3.485-7.641-6.01"/><path fill="#79D1EB" d="M193 444h15l-1 3c4.271 2.183 8.502 4.313 13 6-7.062 2.57-15.856-2.855-22.25-5.75A566 566 0 0 1 193 445z"/><path fill="#54C1E9" d="M167 424c2.625 2.375 2.625 2.375 5 5v2h4v4l5 2-2 1a101 101 0 0 1-6-3v-2l-1.562-.25c-3.483-1.071-6.31-2.885-9.438-4.75v-2l-2-1c4.75-1 4.75-1 7-1"/><path fill="#0662E6" d="M86 416h9l.563 3.813c.622 2.606.916 3.818 3.128 5.386 2.142.926 2.142.926 5.309 1.801v1c-4.245.555-5.7.22-9.21-2.371a157 157 0 0 1-3.165-3.067l-1.652-1.564A143 143 0 0 1 86 417z"/><path fill="#88D0E6" d="M255 72v3a336 336 0 0 1-4.75 2.063l-2.672 1.16c-2.73.823-3.947.754-6.578-.223h2v-2h-10c3.783-1.891 6.318-2.525 10.438-3.125l3.37-.508A57 57 0 0 1 255 72"/><path fill="#7DD4EE" d="M163 133c0 3.758-.936 4.37-3.437 7.063-2.59 2.755-2.59 2.755-4.563 5.937h-2l-.687 2.188c-1.561 3.344-3.616 5.328-6.313 7.812-.362-7.236-.362-7.236 1.125-10.375C149 144 149 144 151.688 143.313c5.106-2.024 7.91-6.117 11.312-10.313"/><path fill="#94D0F6" d="M23 176c1.303 3.909.196 6.576-.937 10.375-1.261 4.261-2.325 8.138-2.063 12.625 0 3.438-.374 6.62-1 10l-2 1c-1.134 2.017-1.134 2.017-2 4-.451-6.822 1.225-12.976 2.875-19.562l.816-3.366c1.253-5.106 2.6-10.097 4.309-15.072"/><path fill="#71C5EF" d="M76 90c0 4.052-1.614 5.795-4 9l-3 2-1 3-6 3c-2.814 2.562-2.814 2.562-5 5 1.654-3.583 3.68-6.81 6-10h2l.875-1.812C68.026 96.004 69.991 94.305 74 92z"/><path fill="#67A7E9" d="M62 313c2.27 3.405 3.069 6.646 4 10.563l.526 2.158A297 297 0 0 1 70 342l-1-2h-2v-3h-2c-2.057-5.168-2.415-9.892-2.625-15.375l-.117-2.52c-.094-2.034-.177-4.07-.258-6.105"/><path fill="#75CDE8" d="M232 76c-1.554 3.109-3.854 3.66-7 5-3.613.695-3.613.695-7.312 1.125-4.168.146-4.168.146-7.688 1.875q-3.5.061-7 0c7.68-5.12 19.662-8.602 29-8"/><path fill="#91E4F7" d="M364 41c3.887.593 6.768 1.763 10.188 3.688l2.875 1.613A613 613 0 0 1 390 54l-1 2-2.082-.875-2.73-1.125-2.708-1.125c-2.513-1.041-2.513-1.041-5.48-.875l-1-3c-2.504-1.219-2.504-1.219-5-2v-2l-6-3z"/><path fill="#A093B6" d="M245 313c2.939 1.352 5.292 2.9 7.75 5l1.86 1.563C256 321 256 321 256 323l4 2c-3 0-3 0-6-1l1 3-3-1c-1.187-2.562-1.187-2.562-2-5h-2c-2.042-2.905-3-4.401-3-8"/><path fill="#BD91E5" d="M209 363a423 423 0 0 1 12.063 10.625c3.492 3.162 6.91 5.938 10.937 8.375l-1 2-5.176-2.246c-1.581-.654-3.2-1.213-4.824-1.754v-3h-2v-2h-2l-3-5-2.687-2.687L209 365z"/><path fill="#87D6ED" d="m170 99 2 1a141 141 0 0 1-5 5h-2v2c-3.047 1.524-6.081 3.037-9.187 4.438-2.877 1.598-3.928 2.959-5.813 5.562h-3v-2c1.898-1.727 1.898-1.727 4.375-3.625l2.46-1.914C156 108 156 108 158 108v-2c2.555-1.762 2.555-1.762 5.875-3.687l3.305-1.95z"/><path fill="#685795" d="m343 338 1 2c-5.376 3.989-11.09 4.357-17.562 3.563L324 343l4-1v-2c5.075-1.263 9.728-2.27 15-2"/><path fill="#2B488A" d="m389 305 1 3a88 88 0 0 1-3 5l-.937 2.688c-1.281 2.787-2.308 3.157-5.063 4.312l-1 2h-6l1.938-1.875c7.355-6.955 7.355-6.955 13.062-15.125"/><path fill="#0A6BF3" d="M429 156h2c2.804 6.217 4.16 11.096 4 18-2-1.312-2-1.312-4-3v-3h-2l1-5-3-2z"/><path fill="#68C8E6" d="M213 89h6c-1.295 3.885-2.878 4.487-6.312 6.625l-2.926 1.852c-2.346 1.294-4.15 2.064-6.762 2.523l1-5h4v-2h3v-2h2z"/><path fill="#38BEF4" d="m130 45 2 1c-2.528 2.799-4.204 4.458-8 5l4 2c-1.963 2.048-3.428 2.95-6.27 3.2-2.25-.011-4.484-.07-6.73-.2a91 91 0 0 1 4-4h2v-2a432 432 0 0 1 4.375-2.562l2.46-1.442z"/><path fill="#3A54E1" d="m186 144 1 4-4 2v7c-2.354 1.43-3.48 2.087-6.25 1.625L175 158v2l-2-1c1.375-2 1.375-2 3-4h2l.277-1.766c.895-2.766 2.185-3.998 4.286-5.984l1.94-1.86c.495-.458.988-.917 1.497-1.39"/><path fill="#737CE7" d="m177 151 2 1c-1 3-1 3-2.937 4.875-2.284 2.353-2.99 4.05-4.063 7.125l-1.562 3.313c-1.17 3.002-1.69 4.956-2 8.062L168 179l-2 1c-1.467-4.695-.635-8.486 1-13a72 72 0 0 1 3-4q1.53-3.487 3-7l2-3h2z"/><path fill="#7CB1EB" d="M85 377c2.796 3.386 5.245 6.835 7.563 10.563C94.59 390.819 96.65 393.965 99 397l-1 2c-3.477-1.159-3.736-1.765-5.5-4.812-1.352-2.296-2.609-4.32-4.312-6.375C86.639 385.45 86.77 383.766 87 381h-2z"/><path fill="#7883B0" d="m397 327 2 1c-4.79 4.386-9.459 8.59-15 12l-2-1c1-3 1-3 4-5h4l-.187-2.375L390 329c3-2 3-2 7-2"/><path fill="#88D8F0" d="M126 187h3c-.676 4.864-1.937 9.345-3.437 14l-.659 2.078A763 763 0 0 1 121 215c-.936-2.992-1.015-4.91-.223-7.934l.557-2.216.603-2.287c1.215-4.672 2.072-8.718 2.063-13.563z"/><path fill="#BAF0FB" d="M145 156c0 3.462-.64 4.287-2.5 7.125-3.449 5.526-6.13 11.313-8.783 17.249-2.51 5.523-2.51 5.523-4.717 6.626 1.867-6.328 4.318-11.654 7.695-17.324 1.422-2.916 1.92-5.47 2.305-8.676h2v-2c2-1.625 2-1.625 4-3"/><path fill="#65C6E6" d="m136 125 2 1-1.375 1.188c-1.753 1.727-1.753 1.727-2.437 4.062-2.104 4.872-5.295 8.803-10.063 11.188-.701.185-1.403.37-2.125.562l1.813-2.687c2.128-3.116 2.128-3.116 3.5-5.75 2.416-3.67 5.514-6.546 8.687-9.563"/><path fill="#D0CAE2" d="m380 340 2 1c-23.245 14.797-23.245 14.797-36 14l3-1v-2l3.883-.223c5.576-.621 10.025-2.712 14.992-5.214l2.547-1.237c3.343-1.637 6.475-3.258 9.578-5.326"/><path fill="#50BFC9" d="M416 219h3q1.262 3.84 2.5 7.688l.723 2.185c1.221 3.821 2.098 7.061 1.777 11.127-4.773-5.809-7.198-13.578-8-21"/><path fill="#16B5C0" d="M362 175c1.63.397 3.254.818 4.875 1.25l2.742.703C372 178 372 178 373.32 180.11L374 182h4l2 4h2l2 7-2.75-2.437c-4.348-3.743-8.958-7.117-13.578-10.512-2.077-1.594-3.899-3.138-5.672-5.051"/><path fill="#B5DDFB" d="M322 97c7.531-.344 14.297.626 21.625 2.313l2.984.646c5.681 1.269 10.996 2.856 16.391 5.041-4.804 1.601-8.704.572-13.273-1.445-3.626-1.598-7.203-2.436-11.102-3.18l-1.969-.378A151 151 0 0 0 322 98z"/><path fill="#93C2F2" d="M73 351c2.785 2.785 3.929 6.175 5.438 9.75q.901 2.118 1.808 4.234l.879 2.06c.813 1.818 1.733 3.585 2.66 5.347L85 375l-1 2-1.207-2.117-1.606-2.758-1.582-2.742c-1.542-2.616-1.542-2.616-4.605-4.383-.187-3.625-.187-3.625 0-7h-2z"/><path fill="#9684E2" d="M179 225h2c-.63 5.781-1.652 11.344-3 17h-2l-1 2c-.456-7.292.714-12.428 4-19"/><path fill="#917AAC" d="m288.188 347.438 2.73.87L293 349v2l1.813.313c2.47.776 3.51 1.758 5.187 3.687-4.548-.614-8.533-1.79-12.812-3.437l-3.458-1.31C281 349 281 349 280 347c3.552-1.184 4.698-.695 8.188.438"/><path fill="#5FD3F6" d="M364 59c4.377 1.226 8.697 2.53 13 4l.375 2.438L378 68l2 1c-3.739-.612-6.841-1.664-10.25-3.312-.871-.41-1.743-.818-2.64-1.239C365 63 365 63 364.202 60.832z"/><path fill="#9CA6EF" d="M210 170c0 4.126-1.733 5.585-4.25 8.813-3.086 3.979-6.003 7.972-8.75 12.187-1.6-3.2-.032-5.723 1-9h3v-5l2.25-.687c3.261-1.557 4.679-3.398 6.75-6.313"/><path fill="#13A7EE" d="m141 83 1 2h2v-2h3l-.937 1.813C144.898 87.09 144.898 87.09 144 90c-1.629 1.387-1.629 1.387-3.562 2.688l-1.942 1.324L137 95l-2-1 3-6 1.125-2.312C140 84 140 84 141 83"/><path fill="#B8B1ED" d="M152 197h1c.196 4.904-.434 8.393-2 13-.255 2.35-.434 4.687-.559 7.047C150 219 150 219 147 221c-.307-5.788.756-10.438 2.5-15.937l.723-2.362A766 766 0 0 1 152 197"/><path fill="#91D7F7" d="M115 113c0 3 0 3-1.25 4.473l-1.75 1.59c-4.481 4.27-8.215 9.051-12 13.937 0-2.84.403-5.237 1-8h2l1-5 3 1z"/><path fill="#3D2D77" d="M370 343h2c-1 3-1 3-3.695 4.605l-3.43 1.582-3.383 1.606c-3.72 1.286-6.585 1.43-10.492 1.207l1.938-.812c2.393-1.075 2.393-1.075 3.062-4.188 2.063-.687 2.063-.687 4-1v2h3l1-3h6z"/><path fill="#9A60DB" d="M189 334c2.025 1.933 3.421 3.632 5 6v3h2l2 6h-5c-2-5.75-2-5.75-2-8h-2z"/><path fill="#A0D7F6" d="M74 174c.688 1.563.688 1.563 1 4-.704 1.66-1.414 3.32-2.152 4.965-1.484 3.562-2.484 7.265-3.535 10.972l-.682 2.362Q67.81 199.149 67 202h-1c-.451-6.09.606-10.036 3.055-15.602 1.127-2.59 1.127-2.59 1.507-6.335.438-3.063.438-3.063 2-5z"/><path fill="#70ADF5" d="M421 161h4v3h2v-2h4l-2 6h2c2.042 2.905 3 4.401 3 8l-1.46-1.715-1.915-2.222-1.898-2.215c-1.604-1.932-1.604-1.932-3.727-2.848v-2h-2v-2h-2z"/><path fill="#87B6F1" d="M237 111v2c-3.371 1.498-5.204 2-9 2v2h-4l-1 3-5-1c1.647-3.294 5.16-4.197 8.375-5.687l2.078-1.01c5.182-2.425 5.182-2.425 8.547-1.303"/><path fill="#18A7D9" d="m237.75 75.875 2.984.055L243 76v2c-5.15 2.628-8.174 3.515-14 2l-1-2c3.35-2.026 5.87-2.217 9.75-2.125"/><path fill="#6FCFF2" d="M168 69h7c-1.373 2.746-2.998 3.13-5.75 4.438-2.867 1.38-5.547 2.748-8.25 4.437L159 79l-2-1 3-1c.733-2.015.733-2.015 1-4h3v-2h4z"/><path fill="#1DAEEB" d="m148 37 2 1c-5.5 5-5.5 5-10 5v3l-8-1c2.48-2.943 4.953-3.904 8.563-5.125C144.35 38.603 144.35 38.603 148 37"/><path fill="#61C5E3" d="M89 334c2.645 3.125 3.844 6.088 5 10h2l.313 1.938L97 348l3 1 1 3 2 1-1 5c-6-7.714-6-7.714-6-11l-3-1c-1.168-1.707-1.168-1.707-2.187-3.812l-1.043-2.083C89 338 89 338 89 334"/><path fill="#C5E8FC" d="M58 282h1l3 30c-3.146-2.86-3.45-4.533-3.687-8.812l-.196-3.47C57.931 293.812 57.92 287.91 58 282"/><path fill="#7C93EC" d="m216 158 6 1v2h-2v2c-1.375 1.625-1.375 1.625-3 3h-2v2h-2v2h-2l1-6h3v-3l2-1z"/><path fill="#3E226D" d="m296 342 25 1c-2.876 2.876-5.205 2.29-9.139 2.322l-2.798-.01-2.788.05-2.677.001-2.453.01C299 345 299 345 296 342"/><path fill="#E0F5FA" d="M471 159c2.025 1.933 3.421 3.632 5 6l1-2a496 496 0 0 1 2.563 5.313l1.44 2.988C482 174 482 174 481 177c-3.13-2.686-4.764-5.954-6.687-9.562l-1.887-3.504C471 161 471 161 471 159"/><path fill="#31BAEB" d="M240 15v2l-3.027.184-3.91.253-3.903.247c-3.02-.035-3.02-.035-4.16 1.316a153 153 0 0 1-6.562.063l-3.63-.028L212 19c3.69-2.263 7.536-2.647 11.75-3.125l2.055-.262c4.76-.57 9.402-.688 14.195-.613"/><path fill="#3B166B" d="M267.563 331.688c2.308 1.243 3.816 2.265 5.437 4.312v2c-2.968.353-5.156.542-7.734-1.113-1.47-1.242-2.873-2.56-4.266-3.887 2.569-1.713 3.516-2.13 6.563-1.312"/><path fill="#B8CBF7" d="m199 130 2 1c-3.626 4.662-6.674 7.575-12.187 9.938-1.95.916-1.95.916-2.688 2.875-1.683 3.272-4.24 4.929-7.125 7.187 2.683-6.341 7.613-10.93 13-15h2v-2h2v-2z"/><path fill="#176DDF" d="m59 376 4 5-2 1v2l3 2c.688 2.625.688 2.625 1 5-4.243-1.414-5.887-4.157-8-8-.437-2.812-.437-2.812 0-5z"/><path fill="#A2CAF5" d="m31 338 1.313 1.813c1.583 2.178 1.583 2.178 3.374 3.75C37 345 37 345 37 348l2 1 1 5 1.625 3.188L43 360l-1 2c-11-18.261-11-18.261-11-24"/><path fill="#7898F1" d="M230 149h5c-3.494 3.596-7.111 6.835-11 10l-2-1 2-4h-2v-2c5.75-1.125 5.75-1.125 8 0z"/><path fill="#50C2E9" d="M458 134c3 0 3 0 5 1 .852 1.96.852 1.96 1.625 4.375.26.791.52 1.583.79 2.398C466 144 466 144 466 147h-2c-1.508-1.828-1.508-1.828-3.125-4.25l-1.633-2.39C458 138 458 138 458 134"/><path fill="#97D2F4" d="M45 129c.857 3.074 1.154 4.956 0 8l-2 1-.437 1.938C42 142 42 142 39 144l-1 3h-2c1.35-4.538 3.192-8.32 5.625-12.375l1.914-3.21z"/><path fill="#93C2F5" d="m405 129 6 3v2h2v2l1.813.813c2.16 1.172 3.545 2.38 5.187 4.187l-1 2-6-2-1-5h-2c-1.29-1.531-1.29-1.531-2.625-3.5l-1.352-1.969z"/><path fill="#7FDAF4" d="M437 99c4.174 3.928 7.894 8.165 11 13v2h-3c-4-5.257-4-5.257-4-8h-2c-2-3-2-3-2-7"/><path fill="#6EC9E6" d="M148 412c2.648 2.578 4.944 4.916 7 8 2.563.73 2.563.73 5 1v4c-3.114-1.5-6.122-3.082-9-5v-2l-1.875-.937L145 415l1-2 2 1z"/><path fill="#CDE6F2" d="M398 286c1.316 2.633.748 3.802.063 6.625l-.59 2.477L397 297h-3l-.687 2.625c-1.553 3.993-3.456 6.217-6.313 9.375 0-3.766 1.152-5.031 3.25-8.125 3.144-4.79 5.636-9.557 7.75-14.875"/><path fill="#766BE4" d="m155 189 1 3-1 2h2c-.255 1.96-.53 3.918-.812 5.875l-.458 3.305C155 206 155 206 152 208q.173-3.626.375-7.25c.03-.682.062-1.364.094-2.066.214-3.671.542-6.547 2.531-9.684"/><path fill="#61D0F2" d="M454 123c2.949 2.746 5.262 5.341 7 9-.312 2.313-.312 2.313-1 4l-1-1-2 2c-1.562-1.562-1.562-1.562-3-4 .375-3.562.375-3.562 1-7z"/><path fill="#9CDFF9" d="m134 95 1 2-1.398 1.215c-5.588 4.87-11.103 9.816-16.602 14.785v-3l3-3 .313-2.062L121 103l6-2c2.48-1.846 4.75-3.882 7-6"/><path fill="#90DBEF" d="M148 364a141 141 0 0 1 5 5v2h2v2h2a105 105 0 0 1 4 5l-1 2a105 105 0 0 1-5-4v-2h-2v-2l-4-1z"/><path fill="#3951EA" d="m210 167 1 3c-1.215 1.824-1.215 1.824-2.937 3.688l-1.715 1.886L205 177l-.312-1.937L204 173l-3-1 1-3 5-1v2h2z"/><path fill="#43BAEE" d="m113 56 2 1c-2.779 3.602-5.741 6.827-9 10l-2 2h-3c2.33-5.721 7.229-9.32 12-13"/><path fill="#85B5EE" d="M120 421a56.5 56.5 0 0 1 7 4v2l2.313.75c2.923 1.36 3.987 2.566 5.687 5.25-3.557-.61-6.81-1.276-10-3-1.125-2.375-1.125-2.375-2-5a70 70 0 0 0-3-4"/><path fill="#7414D3" d="m259 402 8 3-1 4c-4.22-.48-6.797-1.166-10-4l3-1z"/><path fill="#B88DE2" d="M194 372c2.468 1.152 4.048 2.048 6 4 2.57.648 2.57.648 5 1v3l3 1c.688 2.063.688 2.063 1 4-3.659-1.57-6.255-3.832-9.187-6.5l-2.668-2.406C195 374 195 374 194 372"/><path fill="#096BE9" d="M32 336c2.375.25 2.375.25 5 1 1.438 1.813 1.438 1.813 2 4-.875 2.25-.875 2.25-2 4-3-1-3-1-4.187-2.812C32 340 32 340 32 336"/><path fill="#6CD5DA" d="M398 190h2c4.49 4.772 7.778 9.858 10 16-2.659-.367-3.798-.79-5.687-2.75C403 201 403 201 402.563 198.438c-.72-3.122-2.025-3.637-4.563-5.438z"/><path fill="#BA97E7" d="M183 319c2.235 2.235 3.002 4.024 4.188 6.938l1.105 2.652C189 331 189 331 188 334v-2l-4 1 .063-2.437c.233-2.497.233-2.497-1.063-3.563-.141-2.67-.042-5.324 0-8"/><path fill="#96C2F5" d="M444 177c2.502 1.25 2.922 2.35 4.188 4.813l1.105 2.082c.828 2.465.56 3.688-.293 6.105l-4-4 1 5-4-4 1-2h3v-2h-2z"/><path fill="#9BC7F5" d="M261 102q-2 1.002-4 2l-2.48 1.254c-5.991 2.896-10.868 4.419-17.52 4.746 2.94-2.94 6.436-3.771 10.313-5.125l2.302-.84c3.905-1.377 7.18-2.421 11.385-2.035"/><path fill="#72D8F3" d="M390 56a45.4 45.4 0 0 1 13 7v2c-7.63-1.477-7.63-1.477-9.5-4.125L393 59h-3z"/><path fill="#DCC1F5" d="M162 327c3.958 3.541 5.428 6.005 7 11 1.906 3.72 3.942 7.363 6 11h-2c-11-14.739-11-14.739-11-22"/><path fill="#8DD8EF" d="M86 203h1c.495 7.543-1.094 13.059-4 20h-1c.57-6.957 2.013-13.314 4-20"/><path fill="#69BBEF" d="M30 158h1v8l-3 1v5h-2l-1 3c-1.364-4.093.234-6.47 1.938-10.187l.88-1.983A608 608 0 0 1 30 158"/><path fill="#1171EB" d="M368 110c6.303.263 10.69 2.737 16 6l-2 1-1 3h-3v-2h2c-3.238-3.885-6.146-4.832-11-6l-2-1z"/><path fill="#A8ECFB" d="M425 101c3.87 1.572 6.204 4.066 9.063 7.063 3.454 3.767 3.454 3.767 7.937 5.937v4h-2v-2h-2c-1.516-1.574-1.516-1.574-3.25-3.687-2.25-2.666-4.45-5.023-7.187-7.188L425 103z"/><path fill="#9BDFF3" d="M192 90c-2.51 3.06-4.9 3.752-8.687 4.688-.994.25-1.988.502-3.012.761L178 96v3h-6c1.722-3.444 5.525-4.519 8.875-6.187l2.223-1.155 2.144-1.076 1.965-.993C189 89 189 89 192 90"/><path fill="#15A4ED" d="M134 90h3c-.537 3.851-2.116 5.318-5.062 7.75l-2.223 1.86L128 101c-2-3-2-3-2-5l8-4z"/><path fill="#77DAF3" d="m380 69 8 1 1 4 3.438.813L396 76l1 3c-4.435-1.31-8-3.047-11.875-5.562l-2.93-1.88L380 70z"/><path fill="#136CDC" d="M38 349c3.867 3.222 4.88 6.15 6 11h2l2 5h-3q-1.76-3.15-3.5-6.312l-1.012-1.803C38.932 354.042 38 352.293 38 349"/><path fill="#6046D3" d="m148 220 2 1c.192 4.81-.133 8.54-2 13l-2 2q.21-3.72.438-7.437l.119-2.143c.33-5.307.33-5.307 1.443-6.42"/><path fill="#8FD3F4" d="M98 133c0 4.14-2.168 6.456-4.5 9.688l-1.3 1.837A805 805 0 0 1 89 149c-1-2-1-2-.223-4.383l1.16-2.742 1.153-2.758L92 137h4z"/><path fill="#92E4F9" d="M403 65c3.237 1.485 5.933 3.327 8.75 5.5l2.422 1.844L416 74v2h2v2c-2.468-1.152-4.048-2.048-6-4-2.069-.643-2.069-.643-4-1v-2h-2z"/><path fill="#7A40B6" d="m286 411 18 4v1l-18-1z"/><path fill="#6CC8EB" d="M84 320h3c1.97 4.927 2.18 8.78 2 14-3.008-1.504-3.307-3.86-4.402-6.922-.699-2.43-.834-4.564-.598-7.078"/><path fill="#AF87E2" d="M155 312c2.418.586 2.418.586 5 2 .926 3.04.926 3.04 1.313 6.625l.425 3.602L162 327c-3.03-1.515-3.37-3.854-4.625-6.937l-1.352-3.278C155 314 155 314 155 312"/><path fill="#17A6B7" d="M397 213c2 1 2 1 2.71 3.031q.664 2.467 1.313 4.938c.787 2.237.787 2.237 3.079 2.812L406 224c-1.875 4.75-1.875 4.75-3 7a803 803 0 0 1-2.437-5.625l-1.372-3.164c-1.149-3.098-1.764-5.943-2.191-9.211"/><path fill="#7AABED" d="M120 444c8.571.857 8.571.857 12 3v4l2 1c-3.547-.663-6.18-2.133-9.25-4l-2.703-1.625L120 445z"/><path fill="#61C1E4" d="M223 421c3.123.486 5.996.999 9 2v2l8 2v1c-5.661-.497-9.877-1.545-15-4v-2z"/><path fill="#176CDE" d="M67 393h5l-.25 2.25c-.031 2.909-.031 2.909 2.313 4.813L76 402c-.379 2.121-.379 2.121-1 4a642 642 0 0 1-4-4.812l-2.25-2.708C67 396 67 396 67 393"/><path fill="#94DBEE" d="M138 349c2 1.813 2 1.813 4 4v3h2a125 125 0 0 1 4 6l-1 2c-4.8-3.446-4.8-3.446-5.812-6.25L141 356h-2z"/><path fill="#711ECE" d="m195 348 3 1c1.188 3.063 1.188 3.063 2 6l-4 2-.875-2.437c-.858-2.696-.858-2.696-3.125-3.563z"/><path fill="#147C9F" d="M404 268h1v5h2v3h-2l.188 2.375L405 281l-3 2c-1.24-3.718-.57-5.439.438-9.187l.87-3.293z"/><path fill="#01BECA" d="M345 163h7c1 3 1 3 0 6l-7-2z"/><path fill="#07BBC7" d="M326 161c1.958-.054 3.916-.093 5.875-.125l3.305-.07C338 161 338 161 340 163l-1 2 3 1h-6v-3l-3.875.125c-2.18.07-2.18.07-4.125-.125z"/><path fill="#5395EA" d="M148 459h10l2 4 2 2c-5.07-.654-9.42-2.855-14-5z"/><path fill="#82D4ED" d="M125 321c2.082 2.082 2.966 3.72 4.188 6.375l1.105 2.336c.791 2.562.6 3.8-.293 6.289v-3l-1.937-.312L126 332c-1.283-3.85-1.066-6.947-1-11"/><path fill="#0960F0" d="m222 119-1 4h-2l-1 3-6 1c2.19-5.112 4.232-8 10-8"/><path fill="#85E0F9" d="M347 33c4.233.62 7.523 2.105 11.313 4.063l3.238 1.66L364 40c-2.633 1.316-3.802.748-6.625.063l-2.477-.59L353 39v-3l-6-2z"/><path fill="#106CEE" d="m439 176 3 1v2h2v4h2v2l-3 1c-3.938-4.308-3.938-4.308-4.25-7.812z"/><path fill="#4E90E9" d="M130 432c4.457.262 6.515.577 9.938 3.563L142 438c-4.318-.508-8.033-1.197-12-3z"/><path fill="#58BFE1" d="m406 417-1 5-6 2 2-4-5-1c3.644-2.43 5.712-2.162 10-2"/><path fill="#C297E5" d="M240 403c4.305-.166 7.3-.268 11 2l3.25 1.625L257 408v1c-4.367.324-7.332-.75-11.312-2.5l-3.239-1.406L240 404z"/><path fill="#721EC9" d="m194 368 3 1v2l3 1v2h2l1 3c-4.379-.505-6.817-3.178-10-6z"/><path fill="#C9A5ED" d="m198 349 2 1v2h2c1.508 1.645 1.508 1.645 3.125 3.813l1.633 2.144C208 360 208 360 208 363l-1.812-1.937c-2.096-2.266-2.096-2.266-5.188-3.063-.95-2.066-.95-2.066-1.687-4.562l-.762-2.504z"/><path fill="#A3DBDE" d="m311.375 161.438 2.52.158q3.053.194 6.105.404v1l-24 1v-2c5.25-1.147 10.065-.93 15.375-.562"/><path fill="#71CEEC" d="M197 99h5v3c-1.531 1.387-1.531 1.387-3.5 2.688l-1.969 1.324L195 107l-2-1 2-2a104 104 0 0 0 2-5"/><path fill="#1264E0" d="M182 465c4.22.48 6.797 1.166 10 4h-5v-2l-5 1v3l4 1-2 1-3-1c-.812-1.875-.812-1.875-1-4z"/><path fill="#B887E3" d="m257 409 19 1-4 1v2c-5.135-.642-9.994-1.683-15-3z"/><path fill="#332278" d="M351 337c1.063 1.875 1.063 1.875 2 4l-1 2h-3v-3l-3 1-3-3c2.928-.976 4.956-1.082 8-1"/><path fill="#323982" d="M376 325c-2.236 2.236-4.096 2.838-7 4l-2 2h-3v-3h3v-2c3.426-1.618 5.38-2.34 9-1"/><path fill="#0565EE" d="M258 105c-1.634 1.708-2.87 2.935-5 4l-1 2h-4v-2l-2-1c4.23-2.417 7.123-3.348 12-3"/><path fill="#1A6FDB" d="M77 366c3.692 3.297 5.866 6.574 8 11-.25 2.438-.25 2.438-1 4l-.875-1.937c-.953-2.215-.953-2.215-3.125-3.063a109 109 0 0 1-1-7h-2z"/><path fill="#7424C5" d="M181 356c2.565 1.1 4.096 2.098 6.063 4.125 1.847 2.223 1.847 2.223 4.937 1.875v4c-3.823-.541-5.314-2.085-7.75-5l-1.86-2.187C181 357 181 357 181 356"/><path fill="#99C7F6" d="M397 144c1.607.425 3.21.866 4.813 1.313l2.707.738c2.583.988 3.79 1.79 5.48 3.949l1 3c-3.598-1.323-6.637-2.92-9.812-5.062l-2.395-1.598L397 145z"/><path fill="#2456F4" d="m199 137 1 3-2 2-1 2h-2v-2l-4 2c.188-1.812.188-1.812 1-4 4.179-3 4.179-3 7-3"/><path fill="#0D98F1" d="m89 139 3 1-5 10-1-2 1-3-2-1z"/><path fill="#0160F3" d="M236 113v3h-4v2l-8 2v-3h4v-2c5.75-2 5.75-2 8-2"/><path fill="#0967E3" d="m114 419 1 3 3-1c3.407 1.662 4.869 2.803 7 6l-5-1-1-3-5 1-2-3z"/><path fill="#6E23D0" d="M186 332h2l2 6-5 1c-.625-2.375-.625-2.375-1-5z"/><path fill="#ABD3F7" d="M420 143h2v2h2c1.727 1.898 1.727 1.898 3.625 4.375l1.914 2.46C431 154 431 154 431 156h-3l-1.25-2.812c-1.735-3.16-2.946-4.131-5.75-6.188-.75-2.187-.75-2.187-1-4"/><path fill="#1168DA" d="m212 478 9 1v3h-7v-2h-2z"/><path fill="#A4CCF5" d="m93 424 2.188 1.438c2.707 1.504 4.774 2.128 7.812 2.562v4l4 2c-3 0-3 0-5-1v-2l-2.25-.812c-2.64-1.14-4.606-2.282-6.75-4.188z"/><path fill="#792FC5" d="M228 396c4.82.473 7.992 1.292 12 4 1.326.681 2.657 1.353 4 2-2.951 1.253-3.974 1.01-7.016-.215l-3.234-1.723-3.266-1.714L228 397z"/><path fill="#CEACEC" d="M183 360q1.909 1.402 3.813 2.813l2.144 1.582c1.855 1.458 3.534 2.791 5.043 4.605v3h-2v-2h-2v-2h-2c-5-5.476-5-5.476-5-8"/><path fill="#73AEEF" d="m43 362 1.875 1.5c1.964 1.692 1.964 1.692 4.125 1.5v3h2l-1 5h-2a805 805 0 0 1-2.5-4.375l-1.406-2.46C43 364 43 364 43 362"/><path fill="#2D4B85" d="m401 320 3 1c-5.143 6.571-5.143 6.571-9 8v-2h-2v-3h4c2.25-1.917 2.25-1.917 4-4"/><path fill="#8EBDD2" d="M421 291c1.065 2.73 1.08 3.793.004 6.578l-1.442 2.672-1.433 2.703L417 305l-2-2v-3h2l1-3a401 401 0 0 1 3-6"/><path fill="#6DD8F4" d="M364 41c3.941.563 6.75 1.68 10 4v2l4 2-1 3-2-3c-2.552-1.205-2.552-1.205-5-2v-2l-6-3z"/><path fill="#95DFF6" d="M166 29c-1 3-1 3-3.062 4.125-3.66 1.09-7.139 1.489-10.938 1.875 1.396-2.792 3.004-3.002 5.875-4.125l2.68-1.07C163 29 163 29 166 29"/><path fill="#7116D2" d="m202 360 3 1v3l2 1-5 3c-2-3-2-3-1.687-5.125C201 361 201 361 202 360"/><path fill="#E4DDE9" d="M245 313c2.992 1.364 5.29 2.95 7.75 5.125l1.86 1.633L256 321l-1 2-4.395-3.906c-1.694-1.376-1.694-1.376-4.605-1.094z"/><path fill="#1A528D" d="M402 313h2v2l3 1-2 4h-3a129 129 0 0 1-1-6z"/><path fill="#0C538F" d="m395 303 2 1-2 1zm-5 2c3 0 3 0 5 1-2.462 4.8-2.462 4.8-5.187 5.813L388 312a85 85 0 0 1 2-7"/><path fill="#672DCE" d="M150 289h2l.375 3.125c.564 3.496 1.412 6.559 2.625 9.875h-3c-1.757-4.504-2.193-8.176-2-13"/><path fill="#1E85E1" d="M17 211h2a701 701 0 0 1-.875 6.438l-.492 3.62L17 224l-2 1c-.054-1.77-.093-3.541-.125-5.312l-.07-2.989C15 214 15 214 17 211"/><path fill="#0AB5C6" d="M391 192h2l-2 6 2 1a88 88 0 0 1-5 1c-1-1-1-1-1.062-3.562L387 194h3z"/><path fill="#1470EA" d="M400 128c4.833.414 6.827 2.464 10 6l-1 2-1.75-1.437c-2.176-1.511-3.676-2.103-6.25-2.563z"/><path fill="#D8F3F8" d="M255 72v3c-4.43 2.092-4.43 2.092-7.312 1.625L246 76l2-1-3-2c3.406-.778 6.508-1.1 10-1"/><path fill="#0DBDF4" d="m379 64 4 1v4l4-2v3c-6.75-.875-6.75-.875-9-2z"/><path fill="#95E5F9" d="M339 53c6.655-.543 10.458.227 16 4-3.937 1.312-5.78.34-9.687-.937l-3.575-1.153L339 54z"/><path fill="#8DDDF0" d="M169 431h7v4l5 2-2 1a101 101 0 0 1-6-3v-2l-4-1z"/><path fill="#1469E0" d="M92 422h5v2l7 3v1c-2.951.351-5.15.529-7.734-1.078-1.488-1.232-2.884-2.573-4.266-3.922z"/><path fill="#1AA5D5" d="M127 393c2.313.125 2.313.125 5 1 2.022 3.207 3 5.192 3 9a680 680 0 0 1-4-3.875l-2.25-2.18C127 395 127 395 127 393"/><path fill="#7220C9" d="M225 381c3.795.393 5.51 2.243 8 5l-6-1v-2l-3-1zm-3 5 4 1-4 2z"/><path fill="#7676A7" d="M367 326v2h-3l-.312 1.938L363 332l-3 1-2 2v-4h2l1-3c2.146-1.315 3.47-2 6-2"/><path fill="#76DAF4" d="M397 79c3.313.125 3.313.125 7 1 1.938 3.063 1.938 3.063 3 6-4.435-1.394-6.874-3.606-10-7"/><path fill="#0361EC" d="M194 473h8v2h3v2h-5v-2h-6z"/><path fill="#5897E9" d="M168 455c2.938.813 2.938.813 6 2l1 3 2 1-6 1v-5l-3 1z"/><path fill="#293B80" d="M384 329h5l1 5-6-1z"/><path fill="#A3D0F4" d="M62 313c3.317 4.975 4.385 11.036 4 17l-2-1c-.633-2.582-.633-2.582-1.125-5.812l-.508-3.208C62 317 62 317 62 313"/><path fill="#CBE1F3" d="M449 196h3c2.565 2.565 2.54 4.477 3 8h-3c-3-5.75-3-5.75-3-8"/><path fill="#25BBC0" d="M362 175c9.33 1.996 9.33 1.996 12.125 6.188L375 184c-3.088-1.466-5.905-3.17-8.75-5.062l-2.422-1.598L362 176z"/><path fill="#6EACF0" d="M363 106c3.558.61 6.683 1.578 10 3v1l-11-1z"/><path fill="#AE79E0" d="M177 352h5v3l2 1-2 1v3c-5-5.75-5-5.75-5-8"/><path fill="#9DA0C0" d="m390 333 2 1-8 6-2-1c1-3 1-3 4.438-4.75z"/><path fill="#6F28C8" d="M161 320c3.504 3.185 5.015 6.404 6 11-2.41-.964-3.76-1.652-5.25-3.812-.86-2.511-.896-4.551-.75-7.188"/><path fill="#1C73E7" d="m418 142 3 2v3l1.875.813C425 149 425 149 427 152c-2.25-.125-2.25-.125-5-1-4-4.973-4-4.973-4-9"/><path fill="#21BAED" d="M358 40c5.348.535 9.358 2.467 14 5-3.479 1.16-4.342.775-7.687-.437l-2.45-.872L360 43v-2z"/><path fill="#93E4F7" d="M328 26c5.053.632 9.296 2.135 14 4-3.632 1.21-5.065.628-8.687-.437l-3.012-.872L328 28z"/><path fill="#98C0F2" d="M157 448c4.11 1.45 7.433 3.511 11 6-2 1-2 1-6 1v-2h-2v-3l-3-1z"/><path fill="#59C1E5" d="M361 441h8c-2.068 2.797-3.144 3.027-6.687 3.688L359 445l-1-2h3z"/><path fill="#93DBEF" d="m181 438 8 1v2h2v2l2 1c-3.012-.644-5.517-1.65-8.25-3.062l-2.14-1.098L181 439z"/><path fill="#186AD9" d="M110 413q1.659 1.404 3.313 2.813l1.863 1.582A88 88 0 0 1 120 422h-5v-3l-1.937-.75C111 417 111 417 110.37 414.922z"/><path fill="#1EA7D8" d="M172 392c3.941 1.668 6.79 4.227 10 7l-2 1-1.75-1.437c-2.176-1.511-3.676-2.103-6.25-2.563z"/><path fill="#56BEE3" d="m116 379 3 1 1 3 2 1c.625 3.063.625 3.063 1 6h-2a805 805 0 0 1-2.5-4.375l-1.406-2.46C116 381 116 381 116 379"/><path fill="#B083DF" d="M189 334c2.025 1.933 3.421 3.632 5 6v3h-3v-2h-2z"/><path fill="#15A5D8" d="m184 93 2 1-2 1.875c-2.228 1.881-2.228 1.881-2 4.125h-4v-4a101 101 0 0 1 6-3"/><path fill="#7FDDF3" d="M417 94c2.75.125 2.75.125 6 1 2.375 3.063 2.375 3.063 4 6h-4v-2h-2v-2l-4-2z"/><path fill="#88D7F8" d="m138 88 3 1 3-1v2c-1.531 1.29-1.531 1.29-3.5 2.625l-1.969 1.352L137 95l-2-1z"/><path fill="#89D7EF" d="M203 85c-1.562 2-1.562 2-4 4-3.75.25-3.75.25-7 0 2.06-4.12 6.882-5.373 11-4"/><path fill="#9CE0F7" d="m130 45 2 1c-3.222 3.867-6.15 4.88-11 6v-2a432 432 0 0 1 4.375-2.562l2.46-1.442z"/><path fill="#6BD0F8" d="m137 41 3 1v4l-8-1c1.634-1.708 2.87-2.935 5-4"/><path fill="#85B4EE" d="M176 469c2.625.375 2.625.375 5 1v2l4 1c-3.41 1.136-4.003.867-7.187-.437l-2.168-.872L174 471z"/><path fill="#82B6EE" d="M110 437c2.75.125 2.75.125 6 1 2.375 3.063 2.375 3.063 4 6-3.58-1.652-6.78-3.731-10-6z"/><path fill="#B68BE1" d="M232 384h3v2l6 2v2l-7-1z"/><path fill="#C49BE9" d="M209 385c6.523 1.354 6.523 1.354 8.938 4.625L219 392c-4.435-1.394-6.874-3.606-10-7"/><path fill="#3F226A" d="M254 324c2.962.613 4.38 1.254 7 3l-1 3c-2.622-1.049-3.794-1.65-5.25-4.125z"/><path fill="#84BCEA" d="m59 301 2 1c.414 2.285.414 2.285.625 5.063l.227 2.785L62 312c-1.964-1.634-2.923-2.464-3.293-5.043z"/><path fill="#6D2FC7" d="M154 304c2.912 3.288 4.497 5.599 5 10-1.937-.5-1.937-.5-4-2-.688-2.697-.82-5.202-1-8"/><path fill="#AA9DE9" d="M149 211h1c.293 6.055.293 6.055 0 8l-3 2c-.25-6.625-.25-6.625 2-10"/><path fill="#70CBE7" d="M98 174c1.125 1.75 1.125 1.75 2 4-.875 2.25-.875 2.25-2 4h-3c.628-2.929 1.586-5.361 3-8"/><path fill="#96DDEF" d="M216 80v2c-4.504 1.757-8.176 2.193-13 2 4.314-2.876 7.807-4 13-4"/><path fill="#0361EB" d="M86 408c1.063 1.813 1.063 1.813 2 4l-1 3-3-1c-1.187-2.562-1.187-2.562-2-5z"/><path fill="#1674DF" d="m61 316 2 1v9h-3z"/><path fill="#ACE7EC" d="M420 225c3.409 3.409 3.93 8.322 4.125 13l-.125 2c-2.85-3.21-3.435-5.5-3.687-9.75l-.2-2.984z"/><path fill="#15B8C0" d="m397 191 1 2q1.988 1.025 4 2c2 2 2 2 2 5-3.73-1.243-4.795-2.807-7-6z"/><path fill="#4F49DB" d="m158 186 3 4a91 91 0 0 1-4 4h-2c1.875-5.75 1.875-5.75 3-8"/><path fill="#25BFC5" d="M369 169c4.11 1.45 7.433 3.511 11 6l-2 1-3-1v-2l-5-1z"/><path fill="#1AA8DB" d="M108 160c2.139 2.139 2.427 3.133 3 6-2.49 1.245-3.41.777-6 0 1.875-4.875 1.875-4.875 3-6"/><path fill="#0EA4DA" d="M113 154h4l1 4-2 1-3-2-2 3-2-1c1.75-2.5 1.75-2.5 4-5"/><path fill="#589BF2" d="m409 149 6 3c.625 2.563.625 2.563 1 5-3.291-1.135-3.996-1.993-5.75-5.125z"/><path fill="#9BE3F5" d="M463 138c2.62 2.37 4.358 4.873 6 8v3h-4l-.437-3.25c-.4-2.667-.839-5.164-1.563-7.75"/><path fill="#195AF3" d="m207 132 1 3-7 1-1-3c3-1 3-1 7-1"/><path fill="#7EDBF5" d="M448 114c5.571 5.143 5.571 5.143 6 9-2.437-1.125-2.437-1.125-5-3-.812-3.187-.812-3.187-1-6"/><path fill="#A9CEF6" d="M162 465h8l-1 2 5 2c-3.642 1.214-4.332.667-7.687-.937l-2.45-1.153L162 466z"/><path fill="#8AB9F3" d="M148 442c4.309 1.436 5.546 2.546 9 6l-11-3c1-2 1-2 2-3"/><path fill="#98DEF3" d="m151 418 9 3v4c-3.114-1.5-6.122-3.082-9-5z"/><path fill="#86B9F1" d="M93 390c3.08 2.773 4.688 5.063 6 9-1.875-.25-1.875-.25-4-1-2.028-2.94-2-4.277-2-8"/><path fill="#1A75DF" d="m66 337 1 3h2c1.354 2.709 1.065 5.01 1 8l-1-3h-2l-2-7z"/><path fill="#2E578C" d="m389 305 1 3c-3.083 5.71-3.083 5.71-6.145 6.68L382 315l1.277-1.68 1.66-2.195 1.653-2.18c1.45-1.889 1.45-1.889 2.41-3.945"/><path fill="#82B6CF" d="M398 286c1.316 2.633.748 3.802.063 6.625l-.59 2.477L397 297h-2c-.393-4.449.847-7.142 3-11"/><path fill="#0564EF" d="M290 124v2l-9 1v-3c5.625-1.125 5.625-1.125 9 0"/><path fill="#49BDE5" d="m187 106 6 1c-2 3-2 3-4.625 3.688L186 111z"/><path fill="#6BCCF2" d="M198 59v2c-2.709 1.354-5.01 1.065-8 1l-1-2c3.196-1.065 5.657-1.074 9-1"/><path fill="#802EC5" d="M255 406c3.344.557 6.033 1.352 9 3-3.815 1.467-6.29.433-10-1z"/><path fill="#0166E7" d="m59 376 4 5-6 1c.875-4.875.875-4.875 2-6"/><path fill="#701ECD" d="M176 348c5.75 1.625 5.75 1.625 8 5l-2 1v-2l-4 1z"/><path fill="#360B6C" d="m281 338-2 5-5-1c3.625-4 3.625-4 7-4"/><path fill="#CDAFEF" d="M151 300c2 1.5 2 1.5 4 4 .358 2.759.187 5.201 0 8-2.505-2.505-3.051-4.61-4-8z"/><path fill="#8ADBE1" d="M414 211c2.55 1.275 2.93 2.403 4 5v3h-3c-1.354-2.709-1.065-5.01-1-8"/><path fill="#1BA6D5" d="M133 170h3c-1.227 4.154-2.328 6.437-5 10z"/><path fill="#1FB5E7" d="m458 134 4 2v6c-2-1.75-2-1.75-4-4z"/><path fill="#0C60EC" d="m241 136 3 1v3h2v-2h2v3h-7z"/><path fill="#A2E1F2" d="m145 117 2 1a271 271 0 0 1-2.812 3.5l-1.583 1.969C141 125 141 125 138 125v-2h2v-2a105 105 0 0 1 5-4"/><path fill="#16B9EB" d="M404 81c3.817 1.555 6.192 4.036 9 7-4.247-.472-6.235-2.928-9-6z"/><path fill="#732DC2" d="M202 358c3.795 1.491 5.61 3.757 8 7-3 0-3 0-5-1a134 134 0 0 1-3-6"/><path fill="#B8A4CB" d="M269 332c3.916.783 7.364 2.392 11 4-3.988 1.33-6.117.438-10-1z"/><path fill="#7029C2" d="m167 331 2 1c.633 2.066.633 2.066 1.125 4.563l.508 2.503L171 341c-2.971-2.71-3.882-5.132-5-9z"/><path fill="#006DEC" d="m31 319-1 8-2-1c-.625-3.062-.625-3.062-1-6 2-1 2-1 4-1"/><path fill="#1DA5D5" d="m81 300 3 1-1 9c-1.996-3.991-2.195-5.7-2-10"/><path fill="#92CFF2" d="M27 165h1v7h-2l-1 3c-1.392-4.176.177-6.135 2-10"/><path fill="#A6D0F7" d="M435 162h2c3.223 5.273 3.223 5.273 4 7l-1 2c-3.254-2.834-4.52-4.686-5-9"/><path fill="#6ECCE9" d="M145 156c0 4.39-2.128 5.77-5 9l-1-4h2v-2c2-1.625 2-1.625 4-3"/><path fill="#23B6EF" d="M452 122c2.063 1.688 2.063 1.688 4 4-.25 2.75-.25 2.75-1 5l-3-1 .563-1.75c.477-2.457.194-3.894-.563-6.25"/><path fill="#1CA7D8" d="M141 124v3c-2.375 1.75-2.375 1.75-5 3l-2-1c2.363-2.526 3.665-3.888 7-5"/><path fill="#5696EB" d="m234 110 3 1v2c-4.43 2.092-4.43 2.092-7.312 1.625L228 114l4-1v-2z"/><path fill="#9DE8F9" d="M387 73c1.484.423 2.962.864 4.438 1.313l2.496.738L396 76l1 3c-4.43-1.208-6.981-2.517-10-6"/><path fill="#84D6F5" d="M168 69h7c-1.276 2.552-2.372 2.995-5 4l-3-1z"/><path fill="#A9CEF4" d="M186 474c1.46.087 2.918.195 4.375.313l2.46.175C195 475 195 475 197 478c-3.806-.672-7.352-1.727-11-3z"/><path fill="#76B0F3" d="M55 377h2l2 9c-2.562-2.25-2.562-2.25-5-5 .188-2.312.188-2.312 1-4"/><path fill="#B0AEEE" d="M159 180h1v6h-2l-1 3c-1-3-1-3 .438-6.187.515-.929 1.03-1.857 1.562-2.813"/><path fill="#64B9ED" d="M45 129c.965 3.003 1.224 5.042 0 8l-3 1q.463-1.97.938-3.937l.527-2.215C44 130 44 130 45 129"/><path fill="#8FBDF1" d="M153 461c2.813-.25 2.813-.25 6 0 1.875 2 1.875 2 3 4-3.344-.557-6.033-1.352-9-3z"/><path fill="#22A9DA" d="M176 433c2.375.25 2.375.25 5 1 1.313 2.063 1.313 2.063 2 4-4.75-1.875-4.75-1.875-7-3z"/><path fill="#9A64DD" d="M184 329h4l1 5-1-2-4 1z"/><path fill="#9FE1F1" d="M94 182c1.6 3.2.032 5.723-1 9h-2c.557-3.344 1.352-6.033 3-9"/><path fill="#1E6CDF" d="m445 186 4 2v4l-3-1z"/><path fill="#4154D7" d="M205 171c2.063.438 2.063.438 4 1l-5 5a100 100 0 0 1 0-5z"/><path fill="#05A9F9" d="M154 72h5l1 4c-2.169-.506-4-1-6-2z"/><path fill="#1ABBED" d="M381 53c3.735.498 5.812.875 9 3v2c-3.46-1.25-6.147-2.675-9-5"/></svg>